<svg width="228" height="67" viewBox="0 0 228 67" fill="none" xmlns="http://www.w3.org/2000/svg">
<path d="M159.973 11.6463H222.605V6.65859H159.973V11.6463ZM227.902 48.0602C227.443 49.6439 226.683 51.0386 225.061 51.7329C224.285 52.0673 223.399 52.3239 222.56 52.3239C208.809 52.3656 195.06 52.3536 181.308 52.3536C181.183 52.3536 181.049 52.3317 180.884 52.3239V47.3004H222.621V21.9062H154.705V20.9831C154.705 16.3794 154.705 11.7736 154.707 7.16989C154.709 3.62061 156.84 1.53959 160.482 1.5376C180.795 1.5376 201.113 1.5376 221.421 1.5376C225.291 1.5376 226.554 2.37318 227.904 5.825L227.902 48.0602Z" fill="#7E989D"/>
<path d="M160.102 65.2163C156.648 65.2163 153.194 65.2085 149.733 65.1924C146.847 65.1805 144.623 63.4834 143.782 60.6464C143.76 60.5689 143.738 60.5053 143.706 60.4396C143.664 60.3161 143.581 60.0477 143.581 59.9164V48.1681C143.581 48.0788 143.593 47.9852 143.619 47.8997C144.222 45.7291 145.317 44.3047 146.97 43.5467C147.504 43.3019 148.061 43.1487 148.595 42.9995C148.617 42.9955 148.632 42.9915 148.644 42.9855V42.1978C148.638 41.0478 148.632 39.8601 148.654 38.6762C148.747 33.4697 152.214 29.1564 157.279 27.9408C158.108 27.7398 158.961 27.6425 159.802 27.6425C165.683 27.6425 170.651 32.4093 170.873 38.2704C170.917 39.5477 170.909 40.8209 170.897 42.0604L170.891 42.9537C170.97 42.9837 171.05 43.0035 171.129 43.0353C171.813 43.2541 172.52 43.4909 173.167 43.8868C174.968 44.991 175.936 46.7517 175.952 48.986C175.982 52.3503 175.994 55.7184 175.95 59.0806C175.908 62.6042 173.337 65.1687 169.833 65.1785C166.594 65.2085 163.346 65.2163 160.102 65.2163ZM145.565 59.7352C145.621 59.8884 145.662 59.9898 145.69 60.0894C146.283 62.0907 147.724 63.1989 149.745 63.2029C156.443 63.2308 163.135 63.2369 169.831 63.1989C172.24 63.1871 173.942 61.49 173.974 59.0628C174.016 55.7105 174.006 52.3601 173.976 49.0079C173.962 47.4738 173.349 46.3221 172.137 45.5839C171.687 45.3072 171.117 45.1263 170.52 44.9273C170.201 44.8199 169.877 44.7185 169.55 44.593C169.165 44.4499 168.909 44.0738 168.909 43.6599L168.921 42.0425C168.933 40.835 168.947 39.5894 168.897 38.3479C168.714 33.5434 164.639 29.6339 159.81 29.6339C159.118 29.6339 158.425 29.7154 157.747 29.8787C153.575 30.8794 150.724 34.4287 150.646 38.7122C150.624 39.8838 150.63 41.0498 150.636 42.1837L150.642 43.7316C150.642 44.1673 150.358 44.5492 149.944 44.6846C149.662 44.7701 149.396 44.8438 149.134 44.9135C148.662 45.0448 148.216 45.1641 147.801 45.357C146.712 45.8584 146.022 46.7716 145.571 48.3035L145.565 59.7352ZM162.308 58.818H157.3C156.785 58.818 156.356 58.4281 156.312 57.9169C156.271 57.5647 156.251 57.3777 156.257 57.1868C156.281 56.4029 156.209 55.8378 155.771 55.2409C154.406 53.3747 154.801 50.7447 156.695 49.1251C158.414 47.6589 161.116 47.6471 162.842 49.1012C164.75 50.7128 165.169 53.337 163.808 55.2092C163.352 55.8439 163.272 56.4507 163.306 57.2225V57.8233C163.3 58.3745 162.856 58.818 162.308 58.818ZM158.239 56.8286H161.308C161.32 55.987 161.485 55.028 162.197 54.0434C162.933 53.0247 162.651 51.5563 161.552 50.6252C160.544 49.7699 158.979 49.7797 157.975 50.6411C156.882 51.5782 156.614 53.0466 157.36 54.069C158.066 55.022 158.227 55.9531 158.239 56.8286ZM164.83 44.8418H154.628C154.358 44.8418 154.098 44.7304 153.918 44.5414C153.725 44.3404 153.628 44.0838 153.636 43.8131C153.666 43.1766 153.672 42.5359 153.678 41.8994C153.692 40.4211 153.707 38.8871 153.96 37.3811C154.424 34.5779 157.227 32.485 160.245 32.7635C163.377 33.0538 165.663 35.4375 165.808 38.5648C165.858 39.7666 165.85 40.9701 165.838 42.2018L165.826 43.8529C165.822 44.398 165.377 44.8418 164.83 44.8418ZM155.652 42.8523H163.846L163.85 42.1719C163.863 40.9761 163.878 39.8103 163.824 38.6483C163.725 36.5376 162.183 34.9341 160.062 34.7391C158.062 34.5401 156.211 35.9328 155.916 37.7014C155.689 39.0564 155.676 40.443 155.662 41.9112C155.658 42.2275 155.656 42.5399 155.652 42.8523Z" fill="#7E989D"/>
<path d="M210.418 43.1366C208.428 43.0352 206.924 42.5975 205.662 41.555C205.216 41.1849 204.948 41.2644 204.518 41.5748C201.798 43.5245 198.921 43.6798 196.078 41.9628C193.522 40.4189 192.274 38.0037 192.493 35.0153C192.747 31.6631 194.546 29.3612 197.746 28.289C200.185 27.4731 202.486 27.9088 204.538 29.4626C204.992 29.8087 205.254 29.7491 205.684 29.4407C208.404 27.491 211.281 27.334 214.124 29.0548C216.679 30.5987 217.925 33.014 217.705 35.9982C217.451 39.3504 215.644 41.6325 212.456 42.7248C211.688 42.9834 210.861 43.0511 210.418 43.1366Z" fill="#7E989D"/>
<path d="M18.6226 18.6175C18.7476 18.6175 18.8686 18.6414 18.9956 18.6872C19.1186 18.7329 19.2336 18.8125 19.3487 18.9259L21.4101 21.1005C20.5074 22.2822 19.3785 23.1735 18.0194 23.7763C16.6564 24.3791 15.0553 24.6777 13.1963 24.6777C11.4981 24.6777 9.97037 24.3871 8.62125 23.8062C7.27214 23.2253 6.12935 22.4236 5.19093 21.4009C4.24853 20.3743 3.5323 19.1646 3.02638 17.762C2.52442 16.3594 2.27246 14.8315 2.27246 13.1901C2.27246 11.511 2.56213 9.9751 3.1375 8.5725C3.71284 7.16988 4.51042 5.96026 5.54408 4.94164C6.57576 3.92302 7.80781 3.13317 9.24224 2.57013C10.6787 2.00512 12.2599 1.71863 13.9939 1.71863C14.8331 1.71863 15.6268 1.79423 16.3688 1.94145C17.1128 2.09067 17.8072 2.29757 18.452 2.56019C19.0968 2.8248 19.692 3.13516 20.2356 3.50322C20.7752 3.86928 21.2613 4.27117 21.6819 4.71085L19.928 7.07239C19.815 7.21564 19.682 7.34895 19.5293 7.46434C19.3745 7.58372 19.1602 7.64339 18.8825 7.64339C18.698 7.64339 18.5234 7.60161 18.3607 7.51806C18.196 7.43647 18.0214 7.33501 17.8369 7.21962C17.6484 7.10027 17.45 6.97292 17.2258 6.83566C17.0096 6.69838 16.7437 6.56905 16.4402 6.45168C16.1366 6.3343 15.7835 6.23483 15.3787 6.15324C14.974 6.07168 14.5018 6.02791 13.9582 6.02791C13.0099 6.02791 12.1547 6.19503 11.3711 6.52927C10.5914 6.86351 9.92474 7.34098 9.36326 7.96568C8.80379 8.5884 8.36929 9.33845 8.05581 10.2258C7.74632 11.1091 7.59157 12.0999 7.59157 13.2021C7.59157 14.352 7.74831 15.3766 8.05581 16.2699C8.3673 17.1632 8.79386 17.9172 9.33747 18.53C9.87514 19.1408 10.5021 19.6063 11.2203 19.9246C11.9326 20.243 12.7063 20.4021 13.5237 20.4021C13.9939 20.4021 14.4264 20.3763 14.8153 20.3325C15.2042 20.2867 15.5652 20.2072 15.8985 20.0938C16.2319 19.9784 16.5493 19.8331 16.8509 19.6541C17.1485 19.471 17.458 19.2502 17.7655 18.9816C17.8885 18.8782 18.0214 18.7926 18.1663 18.727C18.319 18.6514 18.4698 18.6175 18.6226 18.6175Z" fill="#7E989D"/>
<path d="M45.8847 13.1901C45.8847 14.8116 45.603 16.3216 45.0476 17.7203C44.4881 19.1169 43.6983 20.3325 42.6864 21.367C41.6747 22.4017 40.4505 23.2113 39.0201 23.7982C37.5895 24.3831 36.0024 24.6737 34.2605 24.6737C32.5185 24.6737 30.9292 24.3831 29.4989 23.7982C28.0584 23.2113 26.8324 22.4017 25.8167 21.367C24.8007 20.3325 24.0072 19.1169 23.4477 17.7203C22.8942 16.3216 22.6104 14.8116 22.6104 13.1901C22.6104 11.5667 22.8942 10.0547 23.4477 8.65605C24.0072 7.25941 24.8007 6.04383 25.8167 5.01922C26.8364 3.99064 28.0625 3.18291 29.4989 2.598C30.9332 2.01109 32.5185 1.71863 34.2605 1.71863C36.0024 1.71863 37.5935 2.01308 39.0201 2.60595C40.4505 3.19682 41.6727 4.00656 42.6864 5.03515C43.7024 6.06572 44.4881 7.27534 45.0476 8.67198C45.6068 10.0706 45.8847 11.5766 45.8847 13.1901ZM40.5656 13.1901C40.5656 12.076 40.4227 11.0773 40.131 10.188C39.8434 9.30265 39.4307 8.54863 38.8931 7.9279C38.3553 7.31114 37.6948 6.83964 36.9171 6.50937C36.1372 6.18109 35.2525 6.01598 34.2565 6.01598C33.2526 6.01598 32.3578 6.18109 31.5741 6.50937C30.7884 6.83964 30.1279 7.31114 29.5901 7.9279C29.0525 8.54863 28.6398 9.29867 28.3522 10.188C28.0625 11.0773 27.9216 12.076 27.9216 13.1901C27.9216 14.3102 28.0604 15.3129 28.3522 16.2042C28.6398 17.0936 29.0525 17.8456 29.5901 18.4643C30.1279 19.0831 30.7884 19.5506 31.5741 19.8749C32.3578 20.1992 33.2526 20.3603 34.2565 20.3603C35.2505 20.3603 36.1372 20.1992 36.9171 19.8749C37.7006 19.5506 38.3593 19.0831 38.8931 18.4643C39.4307 17.8456 39.8434 17.0956 40.131 16.2042C40.4207 15.3149 40.5656 14.3102 40.5656 13.1901Z" fill="#7E989D"/>
<path d="M60.4212 15.3786C60.6117 15.8004 60.7943 16.2341 60.9631 16.6738C61.1377 16.2182 61.3261 15.7825 61.5165 15.3547C61.707 14.927 61.9113 14.5132 62.1156 14.1113L67.8652 2.75118C67.9685 2.55422 68.0715 2.40501 68.1808 2.29558C68.2879 2.18815 68.405 2.10857 68.5418 2.05684C68.6748 2.0071 68.8255 1.97925 68.9963 1.97925C69.1688 1.97925 69.3651 1.97925 69.5893 1.97925H73.5574V24.4309H68.9703V11.511C68.9703 10.8863 69.0061 10.2079 69.0615 9.47771L63.1295 21.0268C62.9431 21.3889 62.695 21.6595 62.3836 21.8445C62.072 22.0295 61.713 22.123 61.316 22.123H60.6137C60.2129 22.123 59.8579 22.0295 59.5443 21.8445C59.2309 21.6595 58.9828 21.3889 58.7984 21.0268L52.8326 9.46181C52.8742 9.82191 52.9039 10.176 52.9238 10.5341C52.9437 10.8883 52.9536 11.2146 52.9536 11.511V24.4309H48.3726V1.97925H52.3404C52.5646 1.97925 52.7631 1.97925 52.9317 1.97925C53.1004 1.97925 53.2511 2.0071 53.3861 2.05684C53.5151 2.10857 53.64 2.18815 53.7471 2.29558C53.8544 2.407 53.9595 2.55621 54.0627 2.75118L59.8282 14.155C60.0345 14.551 60.2308 14.9568 60.4212 15.3786Z" fill="#7E989D"/>
<path d="M82.4479 16.9207V24.4273H77.252V1.96558H85.1521C86.7314 1.96558 88.0864 2.15657 89.2213 2.52861C90.3521 2.90264 91.2867 3.41991 92.0188 4.07644C92.7508 4.73498 93.2924 5.51288 93.6396 6.40616C93.9869 7.29945 94.1635 8.26635 94.1635 9.30487C94.1635 10.425 93.9829 11.4536 93.6257 12.3886C93.2687 13.3237 92.7191 14.1255 91.985 14.7939C91.2469 15.4624 90.3065 15.9837 89.1797 16.3597C88.0469 16.7337 86.7057 16.9207 85.1582 16.9207H82.4479ZM82.4479 12.9894H85.1521C86.5072 12.9894 87.4813 12.6672 88.0746 12.0226C88.6698 11.374 88.9653 10.4707 88.9653 9.30885C88.9653 8.79358 88.89 8.32804 88.7371 7.90625C88.5824 7.48448 88.3542 7.11842 88.0348 6.81799C87.7234 6.5156 87.3304 6.27884 86.8485 6.11371C86.3742 5.94858 85.8089 5.86702 85.1521 5.86702H82.4479V12.9894Z" fill="#7E989D"/>
<path d="M102.07 16.119V24.4311H96.8735V1.96558H104.161C105.776 1.96558 107.163 2.13269 108.305 2.46692C109.448 2.80116 110.381 3.26672 111.103 3.86157C111.825 4.45843 112.351 5.16271 112.68 5.97643C113.007 6.78617 113.172 7.67349 113.172 8.62844C113.172 9.35461 113.073 10.047 112.878 10.6936C112.684 11.3382 112.395 11.941 112.01 12.4881C111.625 13.0372 111.149 13.5266 110.595 13.9583C110.037 14.3921 109.395 14.7462 108.66 15.0227C109.014 15.1978 109.335 15.4127 109.637 15.6693C109.938 15.928 110.202 16.2383 110.428 16.6104L115.19 24.4291H110.488C109.619 24.4291 108.992 24.101 108.617 23.4424L104.897 16.9227C104.734 16.6322 104.54 16.4293 104.322 16.304C104.101 16.1787 103.786 16.117 103.391 16.117L102.07 16.119ZM102.07 12.5259H104.161C104.863 12.5259 105.47 12.4364 105.968 12.2553C106.464 12.0743 106.871 11.8256 107.185 11.5073C107.502 11.1909 107.734 10.8149 107.883 10.3872C108.026 9.96143 108.091 9.50183 108.091 9.00844C108.091 8.02165 107.776 7.24972 107.135 6.69663C106.496 6.14355 105.504 5.86302 104.161 5.86302H102.07V12.5259Z" fill="#7E989D"/>
<path d="M138.17 24.4304H134.145C133.69 24.4304 133.323 24.325 133.028 24.1142C132.736 23.9071 132.534 23.6367 132.421 23.3084L131.097 19.389H122.578L121.257 23.3084C121.15 23.5969 120.955 23.8515 120.652 24.0863C120.36 24.317 119.991 24.4344 119.56 24.4344H115.501L124.173 1.96887H129.494L138.17 24.4304ZM123.778 15.8417H129.897L127.836 9.68617C127.709 9.29822 127.546 8.83467 127.371 8.30943C127.189 7.77625 127.01 7.20326 126.836 6.59051C126.673 7.2172 126.502 7.79814 126.33 8.33331C126.155 8.87049 125.991 9.33007 125.838 9.72001L123.778 15.8417Z" fill="#7E989D"/>
<path d="M16.0556 35.3777C15.9009 35.6243 15.7402 35.8135 15.5715 35.9327C15.4029 36.058 15.1886 36.1179 14.9168 36.1179C14.6807 36.1179 14.4268 36.0442 14.1569 35.897C13.8851 35.7518 13.5776 35.5805 13.2344 35.3956C12.8912 35.2087 12.4983 35.0414 12.0579 34.8922C11.6135 34.7491 11.1095 34.6713 10.5481 34.6713C9.57787 34.6713 8.8537 34.8784 8.3716 35.2942C7.89543 35.7101 7.65934 36.2731 7.65934 36.9873C7.65934 37.4409 7.80021 37.8148 8.09187 38.1073C8.37953 38.4037 8.75452 38.6603 9.21877 38.8812C9.68501 39.094 10.2167 39.295 10.8218 39.4741C11.421 39.657 12.0301 39.8522 12.659 40.0769C13.282 40.2978 13.897 40.5584 14.4962 40.8588C15.0954 41.1534 15.6291 41.5393 16.0993 41.9989C16.5615 42.4583 16.9425 43.0274 17.2262 43.69C17.5158 44.3524 17.6567 45.1501 17.6567 46.0852C17.6567 47.1217 17.4782 48.0986 17.119 49.0038C16.7599 49.9031 16.2401 50.6989 15.5576 51.3673C14.8751 52.0418 14.0359 52.569 13.036 52.955C12.036 53.3409 10.9032 53.5341 9.62747 53.5341C8.93109 53.5341 8.22082 53.4624 7.5026 53.323C6.77846 53.1738 6.07414 52.963 5.39758 52.7024C4.72105 52.4397 4.08618 52.1313 3.49096 51.7693C2.89577 51.4093 2.37794 51.0093 1.9375 50.5675L3.47509 48.1285C3.58818 47.9434 3.74691 47.7962 3.95126 47.6789C4.15561 47.5635 4.37583 47.5117 4.61192 47.5117C4.91547 47.5117 5.22895 47.6093 5.54243 47.8022C5.85591 47.9992 6.20904 48.212 6.60386 48.4488C6.99669 48.6855 7.453 48.9024 7.96488 49.0933C8.47677 49.2923 9.08188 49.3839 9.78023 49.3839C10.7266 49.3839 11.4567 49.1768 11.9785 48.7612C12.5003 48.3413 12.7622 47.6847 12.7622 46.7796C12.7622 46.2523 12.6213 45.8266 12.3317 45.4943C12.042 45.168 11.667 44.8935 11.2008 44.6807C10.7385 44.4679 10.2048 44.2767 9.60961 44.1096C9.01641 43.9466 8.4093 43.7614 7.78038 43.5645C7.15343 43.3637 6.54433 43.1149 5.95113 42.8243C5.35594 42.534 4.8262 42.1441 4.35996 41.6686C3.89372 41.1931 3.5128 40.5941 3.22908 39.8839C2.94338 39.1737 2.80055 38.2905 2.80055 37.2419C2.80055 36.3984 2.96918 35.5747 3.30845 34.777C3.64571 33.9752 4.14372 33.259 4.79843 32.6341C5.45512 32.0094 6.25864 31.508 7.21295 31.1302C8.16724 30.7561 9.25845 30.5671 10.4885 30.5671C11.175 30.5671 11.8436 30.6207 12.4943 30.7302C13.1451 30.8396 13.7641 30.9968 14.3474 31.2077C14.9307 31.4165 15.4783 31.6693 15.9842 31.9616C16.4921 32.2542 16.9445 32.5865 17.3492 32.9564L16.0556 35.3777Z" fill="#7E989D"/>
<path d="M34.659 30.8135V34.8263H25.4632V40.0686H32.5044V43.9245H25.4632V49.2722H34.659V53.283H20.2354V30.8135H34.659Z" fill="#7E989D"/>
<path d="M48.1588 49.5168C48.8752 49.5168 49.5158 49.4551 50.0655 49.3298C50.6189 49.2046 51.1409 49.0393 51.6349 48.8365V45.4284H49.4246C49.0974 45.4284 48.8414 45.3409 48.653 45.1638C48.4683 44.9887 48.3751 44.7718 48.3751 44.4994V41.6365H56.3408V51.1203C55.7655 51.5422 55.1702 51.9082 54.5533 52.2066C53.9323 52.509 53.2715 52.7578 52.5692 52.9548C51.8669 53.1555 51.119 53.2949 50.3254 53.3925C49.5317 53.4818 48.6767 53.5256 47.764 53.5256C46.1233 53.5256 44.6035 53.2353 43.2127 52.6544C41.8179 52.0753 40.6077 51.2735 39.592 50.2491C38.5682 49.2224 37.7727 48.0149 37.1933 46.6121C36.6139 45.2096 36.3242 43.6795 36.3242 42.0382C36.3242 40.3592 36.6061 38.8251 37.1537 37.4226C37.7072 36.0201 38.4987 34.8103 39.5305 33.7916C40.5601 32.773 41.804 31.9833 43.2664 31.4203C44.7265 30.8553 46.3634 30.5687 48.1628 30.5687C49.0994 30.5687 49.9723 30.6462 50.7917 30.7994C51.6109 30.9546 52.3669 31.1655 53.0632 31.4321C53.7557 31.6988 54.3885 32.017 54.9619 32.3851C55.5372 32.7572 56.0491 33.1592 56.4955 33.5869L54.9898 35.8807C54.847 36.0935 54.6742 36.2646 54.4739 36.3919C54.2696 36.5174 54.0573 36.5771 53.8212 36.5771C53.5136 36.5771 53.1962 36.4737 52.869 36.2727C52.4581 36.0259 52.0752 35.8151 51.7082 35.6321C51.3452 35.453 50.9721 35.3058 50.5932 35.1924C50.2143 35.0769 49.8095 34.9954 49.3949 34.9456C48.9742 34.8958 48.5061 34.8681 47.9804 34.8681C47.0062 34.8681 46.1293 35.0412 45.3515 35.3854C44.5718 35.7335 43.9092 36.217 43.3616 36.8417C42.818 37.4664 42.3933 38.2183 42.0917 39.1018C41.7942 39.9771 41.6453 40.962 41.6453 42.0423C41.6453 43.236 41.8101 44.2923 42.1373 45.2176C42.4628 46.1467 42.9192 46.9245 43.4984 47.5651C44.0778 48.2018 44.7642 48.6873 45.5598 49.0214C46.3475 49.3497 47.2164 49.5168 48.1588 49.5168Z" fill="#7E989D"/>
<path d="M68.824 49.1606C69.5264 49.1606 70.1433 49.0431 70.6927 48.8124C71.2404 48.5815 71.7047 48.2512 72.0835 47.8175C72.4586 47.3837 72.7523 46.8607 72.9526 46.2358C73.1569 45.6132 73.2522 44.907 73.2522 44.1211V30.8153H78.4503V44.1211C78.4503 45.4939 78.2281 46.7631 77.7818 47.911C77.3293 49.061 76.6983 50.0517 75.8672 50.8854C75.0377 51.7171 74.024 52.3656 72.8395 52.8331C71.6492 53.2907 70.3118 53.5274 68.8258 53.5274C67.33 53.5274 65.9868 53.2967 64.8023 52.8331C63.608 52.3717 62.6041 51.7171 61.7728 50.8854C60.9435 50.0517 60.3067 49.061 59.8661 47.911C59.4257 46.7631 59.2056 45.4939 59.2056 44.1211V30.8153H64.4035V44.111C64.4035 44.8989 64.5028 45.6071 64.6992 46.226C64.9036 46.8486 65.1892 47.3779 65.5681 47.8157C65.9472 48.2572 66.4115 48.5875 66.9609 48.8182C67.5045 49.0471 68.1255 49.1606 68.824 49.1606Z" fill="#7E989D"/>
<path d="M87.0292 44.967V53.279H81.833V30.8135H89.1223C90.7393 30.8135 92.1221 30.9805 93.2648 31.3149C94.4077 31.6492 95.342 32.1146 96.0622 32.7096C96.7865 33.3063 97.3102 34.0107 97.6394 34.8243C97.9689 35.6341 98.1317 36.5214 98.1317 37.4744C98.1317 38.2007 98.0344 38.893 97.8399 39.5396C97.6455 40.1841 97.3598 40.7889 96.9709 41.334C96.586 41.8832 96.1098 42.3725 95.5544 42.8042C94.9969 43.238 94.354 43.5922 93.6199 43.8687C93.9731 44.0437 94.2986 44.2566 94.5961 44.5132C94.8976 44.7738 95.1636 45.0822 95.3896 45.4543L100.151 53.275H95.4473C94.5782 53.275 93.9474 52.9469 93.5743 52.2883L89.8524 45.7706C89.6896 45.4802 89.4913 45.2772 89.277 45.1499C89.0568 45.0246 88.7414 44.961 88.3444 44.961H87.0272L87.0292 44.967ZM87.0292 41.3738H89.1223C89.8246 41.3738 90.4317 41.2842 90.9277 41.1033C91.4238 40.9222 91.8324 40.6736 92.1498 40.3552C92.4634 40.0389 92.6934 39.6628 92.8423 39.2352C92.9851 38.8075 93.0546 38.3499 93.0546 37.8563C93.0546 36.8696 92.737 36.0958 92.0964 35.5446C91.4555 34.9934 90.4635 34.7109 89.1223 34.7109H87.0292V41.3738Z" fill="#7E989D"/>
<path d="M123.132 53.2791H119.108C118.654 53.2791 118.285 53.1735 117.991 52.9627C117.701 52.7559 117.495 52.4872 117.382 52.1569L116.061 48.2376H107.541L106.218 52.1569C106.113 52.4474 105.917 52.7 105.615 52.9368C105.321 53.1677 104.954 53.2849 104.524 53.2849H100.462L109.134 30.8174H114.456L123.132 53.2791ZM108.74 44.6922H114.858L112.799 38.5347C112.67 38.1487 112.509 37.6833 112.335 37.158C112.15 36.6247 111.974 36.0519 111.799 35.4411C111.634 36.0657 111.466 36.6486 111.293 37.1839C111.118 37.7211 110.952 38.1807 110.801 38.5686L108.74 44.6922Z" fill="#7E989D"/>
</svg>
