<svg width="64" height="64" viewBox="0 0 64 64" fill="none" xmlns="http://www.w3.org/2000/svg">
<g clip-path="url(#clip0_72_1327)">
<path d="M32 6C38.8956 6 45.5088 8.73928 50.3848 13.6152C55.2607 18.4912 58 25.1044 58 32C58 38.8956 55.2607 45.5088 50.3848 50.3848C45.5088 55.2607 38.8956 58 32 58C25.1044 58 18.4912 55.2607 13.6152 50.3848C8.73928 45.5088 6 38.8956 6 32C6 25.1044 8.73928 18.4912 13.6152 13.6152C18.4912 8.73928 25.1044 6 32 6ZM32 64C40.4869 64 48.6263 60.6286 54.6274 54.6274C60.6286 48.6263 64 40.4869 64 32C64 23.5131 60.6286 15.3737 54.6274 9.37258C48.6263 3.37142 40.4869 0 32 0C23.5131 0 15.3737 3.37142 9.37258 9.37258C3.37142 15.3737 0 23.5131 0 32C0 40.4869 3.37142 48.6263 9.37258 54.6274C15.3737 60.6286 23.5131 64 32 64ZM24.925 39.075C21.025 35.175 21.025 28.8375 24.925 24.9375C28.825 21.0375 35.1625 21.0375 39.0625 24.9375C40.2375 26.1125 42.1375 26.1125 43.3 24.9375C44.4625 23.7625 44.475 21.8625 43.3 20.7C37.05 14.45 26.925 14.45 20.675 20.7C14.425 26.95 14.425 37.075 20.675 43.325C26.925 49.575 37.05 49.575 43.3 43.325C44.475 42.15 44.475 40.25 43.3 39.0875C42.125 37.925 40.225 37.9125 39.0625 39.0875C35.1625 42.9875 28.825 42.9875 24.925 39.0875V39.075Z" fill="#7E989D"/>
</g>
<defs>
<clipPath id="clip0_72_1327">
<rect width="64" height="64" fill="white"/>
</clipPath>
</defs>
</svg>
