<svg width="208" height="162" viewBox="0 0 208 162" fill="none" xmlns="http://www.w3.org/2000/svg">
<rect y="92" width="208" height="69" fill="#72DBF2"/>
<path d="M130.023 17.4048C130.023 17.6359 129.985 17.825 129.96 18.0393C129.981 17.825 129.998 17.6149 130.023 17.4048Z" fill="#231F20" stroke="#231F20" stroke-width="0.25" stroke-miterlimit="10"/>
<path d="M84.6958 43.1295L84.6328 43.3942Z" fill="#231F20"/>
<path d="M161.954 137.217C165.099 135.576 168.089 133.653 170.888 131.473C173.564 129.411 176.052 127.114 178.321 124.611C180.397 122.304 182.275 119.858 183.343 116.9C183.666 116.005 183.843 115.366 182.309 115.472C170.715 116.261 159.118 117.026 147.512 117.627C128.583 118.596 109.642 119.251 90.688 119.589C87.8768 119.64 85.5615 119.283 83.6874 117.068C83.1664 116.451 82.3091 116.064 81.7545 115.682C81.3679 115.413 81.0401 115.194 80.8216 115.047L80.7838 114.253L80.809 110.959C80.87 110.805 80.9151 110.646 80.9435 110.484C80.9713 110.307 80.9784 110.128 80.9645 109.95C80.8889 108.942 81.267 108.269 80.9015 107.626C80.7313 107.332 80.5388 107.051 80.3258 106.786L80.2249 106.664L79.935 104.084H80.6199L80.5695 103.664H80.3258C80.2663 103.502 80.2561 103.327 80.2964 103.16C80.3668 102.97 80.4878 102.803 80.6464 102.677C80.8049 102.551 80.9948 102.471 81.1956 102.445C81.5275 102.419 81.8597 102.492 82.15 102.656C82.4402 102.819 82.6755 103.064 82.826 103.361C83.1874 104.055 82.7924 104.647 83.2252 104.979C83.4689 105.123 83.7495 105.191 84.032 105.177C84.1924 105.173 84.3508 105.139 84.4984 105.076C84.8934 104.874 85.0699 104.202 84.9186 103.433C84.7421 101.657 84.5684 99.8792 84.3975 98.1004L85.8094 97.9617L85.6371 93.705L83.9563 93.7723L83.7462 91.604L81.9646 91.7259C81.9856 92.0284 82.0108 92.3268 82.0318 92.6293C81.8504 92.6896 81.6544 92.6896 81.4729 92.6293C81.2609 92.5544 81.0832 92.4051 80.9729 92.2091C80.5978 91.4621 80.279 90.6882 80.019 89.8938C79.7407 89.0473 79.5285 88.1805 79.3845 87.3012C79.3215 86.9398 79.2291 86.3893 79.1366 85.717C78.9003 83.8378 78.7712 81.9466 78.75 80.0527C78.7164 78.8551 78.6786 77.3004 78.6702 75.4725C78.6702 72.3574 78.6702 69.2423 78.6702 66.1272C78.6702 63.3497 78.7921 61.0259 78.9139 59.2863C79.0316 57.6433 79.1702 56.3113 79.2837 55.2145C79.5148 53.0001 79.7543 51.1302 79.9476 49.7519C80.1409 48.3737 80.3678 46.9408 80.6451 45.4827C81.0191 43.4153 81.2923 41.8773 81.8007 39.873C82.0906 38.7342 82.3638 37.772 82.5613 37.1459C83.5014 34.112 84.6992 31.1641 86.1414 28.3342C88.6318 23.4553 91.8574 18.9883 95.7052 15.0894C97.1894 13.6024 98.7669 12.2115 100.428 10.9252C104.807 7.56363 109.53 4.87854 114.938 3.52129C118.556 2.61365 121.686 3.00864 123.859 4.74408C126.031 6.47951 126.628 9.40412 126.834 10.2655C127.129 11.52 127.231 12.8124 127.136 14.0978C127.136 14.3289 127.098 14.518 127.073 14.7323C127.014 15.3416 126.951 15.9467 126.842 16.5476C125.762 22.4934 123.182 27.893 120.703 33.3556C118.745 37.6585 116.446 41.8059 114.795 46.2474C114.456 47.1635 114.114 48.0795 113.77 48.9955C112.812 51.3135 112.212 53.763 111.988 56.2608C111.664 60.0174 111.912 63.69 115.064 66.4423C118.161 69.0896 121.598 68.5728 125.094 67.5139C125.628 67.35 126.245 66.9004 126.67 67.0432C129.884 68.1147 133.099 66.2028 136.335 67.1273C137.124 67.3542 138.322 67.1819 138.65 66.1272C138.94 65.1901 137.889 64.8666 137.389 64.2993C137.339 64.2405 137.389 64.0976 137.389 63.9842C138.91 63.3917 140.305 63.4715 141.465 64.7237C142.427 65.7658 142.474 67.0222 142.049 68.2618C141.803 68.9359 141.425 69.5544 140.939 70.0816C140.452 70.6089 139.865 71.0344 139.213 71.3335C138.393 71.7537 137.553 72.1193 136.633 72.5521C138.256 73.4287 140.135 73.711 141.944 73.3505C143.11 73.1671 144.303 73.3021 145.398 73.7412C147.054 74.3463 148.76 74.38 150.928 73.7412C149.574 73.1419 148.311 72.3524 147.18 71.3965C146.05 70.4469 145.587 69.5812 146.31 67.9257C148.718 62.4042 145.318 57.0004 139.314 56.4205C138.314 56.3281 137.141 56.6054 136.898 55.0044C136.818 54.4834 135.973 54.4162 135.385 54.538C134.477 54.7229 133.502 55.0002 132.956 55.7188C131.032 58.24 128.426 60.2402 126.884 63.0807C126.51 63.7699 126.119 64.5892 126.153 65.333C126.208 66.4844 125.565 66.8289 124.729 67.1189C121.472 68.2492 118.341 68.1484 115.408 66.1566C112.803 63.4421 112.211 60.1603 112.572 56.5508C112.812 54.1094 113.551 51.7899 114.093 49.4073L114.139 49.2813L115.127 46.6214L119.295 37.6459C122.174 31.4479 125.3 25.3466 126.985 18.6696C127.246 17.6881 127.44 16.6899 127.565 15.6819C127.657 15.0558 128.653 7.47539 123.922 4.04654C121.396 2.28169 118.497 2.22707 116.232 2.66828C108.08 4.25244 101.739 8.78642 98.8525 11.4127C98.0793 12.1186 97.4658 12.7321 97.054 13.1565C96.0918 14.1986 95.5749 14.3121 95.2724 14.207C95.0539 14.1314 94.8984 13.9129 94.5958 13.9213C94.4636 13.9382 94.3362 13.9824 94.2219 14.0511C94.1076 14.1198 94.0089 14.2116 93.9319 14.3205C93.3352 14.9634 92.394 15.787 91.3561 17.0812C89.8845 18.7631 88.5016 20.5205 87.2129 22.3463C84.5907 26.1545 82.4628 30.2802 80.8804 34.6246C77.9811 42.5328 76.6784 50.7562 75.9977 59.0972C75.0802 69.2561 75.0999 79.478 76.0565 89.6333C76.3885 92.9319 74.6741 94.9152 72.9344 96.6675C71.5562 98.0583 69.993 99.4198 68.5013 100.785C66.3036 102.802 66.3163 102.886 64.7195 100.441C63.5849 98.7265 62.4504 96.8398 62.1983 94.8816C61.984 93.2302 61.9966 91.7805 60.3032 90.8351C60.5963 90.6913 60.8774 90.5241 61.1436 90.335C61.8201 89.7383 63.4841 90.2048 63.0051 88.3139C62.7697 87.3936 63.795 85.9313 63.3706 85.3304C62.1773 83.6496 62.7235 82.7378 64.1816 81.8259C64.3683 81.7384 64.5125 81.5804 64.5827 81.3865C64.6528 81.1927 64.6431 80.9789 64.5556 80.7922C64.3119 80.372 63.816 80.5317 63.4631 80.6326C61.8873 81.0948 60.82 80.4519 60.0132 79.1492C59.3829 78.1324 58.4333 77.729 57.3701 78.2248C55.8742 78.9265 54.4287 79.7838 53.0211 80.62C52.7286 80.7605 52.5017 81.0085 52.3874 81.3121C52.2731 81.6158 52.2804 81.9519 52.4076 82.2503C53.1387 83.8891 53.0757 85.2632 51.3991 86.2801C51.2628 86.3873 51.1629 86.5341 51.1133 86.7003C50.9537 87.1205 50.6595 87.5869 50.9453 88.0029C51.0205 88.0935 51.1131 88.1681 51.2175 88.2225C51.322 88.277 51.4362 88.31 51.5535 88.3198C51.6709 88.3296 51.789 88.3159 51.901 88.2795C52.013 88.2431 52.1167 88.1848 52.2059 88.1079C53.0883 87.5365 53.0127 88.2466 53.2396 88.7383C53.6346 89.5787 52.8488 89.8518 52.4958 90.2678C50.1679 93.0075 48.1551 95.8775 48.0123 99.6635C47.9856 101.323 48.0557 102.983 48.2224 104.634C48.4561 107.723 48.3008 110.829 47.7601 113.879C47.5164 115.299 47.1508 116.871 48.5753 118.01C48.8695 118.245 49.3443 118.291 49.1468 118.871C48.9493 119.451 48.5375 119.451 48.0585 119.434C42.3353 119.224 36.6122 119.014 30.889 118.829C29.9268 118.8 29.7839 118.341 29.7545 117.547C29.6998 115.892 29.5192 114.236 29.4855 112.576C29.4393 110.349 28.351 109.042 26.2626 108.336C22.8337 107.152 19.6024 107.836 16.3878 109.097C12.1858 110.753 12.1858 110.778 12.1858 115.211C12.2216 115.782 12.2216 116.354 12.1858 116.925C12.0556 117.909 12.5136 118.367 13.3876 118.682C15.9571 119.634 18.5915 120.401 21.2706 120.976C22.195 121.169 22.5312 121.531 22.611 122.535C22.9094 126.426 22.8211 130.321 22.9136 134.213C22.9808 137.251 22.9892 137.209 19.9932 137.305C14.7028 137.477 9.4209 137.784 4.29443 139.347C23.1783 138.801 42.0328 139.747 60.8956 140.053C79.7585 140.36 98.5626 138.667 117.434 139.507C116.369 140.03 115.207 140.328 114.022 140.381C107.16 141.016 100.285 140.696 93.4319 140.608C91.083 140.579 88.7298 140.537 86.4565 141.448C88.6006 141.935 90.792 142.183 92.9907 142.188C103.353 142.524 113.723 142.079 124.086 142.524C125.284 142.552 126.468 142.788 127.586 143.222C126.348 143.587 125.066 143.782 123.775 143.802C119.535 143.856 115.299 143.932 111.059 143.974C100.752 144.083 90.44 144.15 80.1325 144.306C78.5609 144.331 76.9264 144.306 75.4094 145.201L106.845 145.81V146.407C89.5618 147.705 72.1823 147.575 54.933 149.399C68.9719 151.84 83.1706 151.138 97.3019 151.823C86.4145 153.176 75.4514 152.025 64.5262 153.063C66.078 153.513 67.6773 153.78 69.2913 153.857C77.8676 154.332 86.4607 154.433 95.0455 154.66C96.8691 154.71 98.7474 154.639 100.474 155.655C80.8426 156.672 61.1772 156.286 41.5411 157.252C43.6449 157.607 45.7737 157.794 47.9072 157.811C71.8475 157.996 95.7878 158.161 119.728 158.307C120.587 158.307 121.444 158.236 122.291 158.093C123.174 157.941 124.682 158.151 124.628 157.105C124.581 156.185 123.056 156.265 122.106 156.21C118.791 156.059 115.467 155.971 112.148 155.866C111.379 155.84 110.61 155.836 109.778 155.155C112.589 154.096 115.442 154.231 118.14 153.592C112.652 153.054 107.13 153.731 101.332 153.012C102.172 152.407 102.823 152.512 103.433 152.491C111.387 152.252 119.346 152.042 127.3 151.798C130.796 151.689 134.297 151.558 137.927 150.537C137.2 149.911 136.557 149.995 135.952 149.941C130.006 149.415 124.048 149.693 118.098 149.798C105.437 150.016 92.7806 150.176 80.1241 149.957C78.2971 149.939 76.4782 149.711 74.7035 149.277C75.7168 148.953 76.7795 148.81 77.8424 148.857C85.7464 148.823 93.6504 148.815 101.554 148.747C115.585 148.625 129.624 148.907 143.65 148.378C144.629 148.34 145.65 148.453 146.764 147.659C137.62 146.982 128.674 147.289 119.871 145.705C120.307 145.545 120.768 145.464 121.232 145.466C130.624 145.146 140.015 145.201 149.411 145.129C151.399 145.129 153.412 145.129 155.294 144.188C153.608 143.699 151.86 143.462 150.105 143.486C144.549 143.486 138.999 143.297 133.46 142.801C132.759 142.734 132.036 142.726 131.443 142.146C132.17 141.381 133.061 141.306 133.872 141.133C138.36 140.116 142.936 139.873 147.512 139.784C164.919 139.504 182.33 139.272 199.743 139.087C201.457 139.066 203.168 139.087 204.882 139.087L161.954 137.217ZM85.3724 94.0412L85.5489 96.8145L84.2883 96.8818L84.1118 94.121L85.3724 94.0412ZM25.4894 137.267C24.9264 137.221 25.0356 136.7 25.0272 136.322C24.9039 131.632 24.7877 126.942 24.6784 122.249C24.6784 121.741 24.5692 121.111 25.3129 121.085C26.0567 121.06 25.9306 121.775 25.939 122.216C25.9727 124.56 25.939 126.905 25.939 129.254H26.0525C26.0525 131.599 26.0525 133.948 26.0525 136.293C26.0525 136.7 26.2416 137.33 25.4894 137.267ZM78.8551 85.6204L78.8929 85.7674C78.355 86.7843 77.7626 86.7465 77.6827 85.6246C77.439 82.2629 77.3466 78.8803 77.1995 75.5061C77.1995 75.1741 77.1364 74.7876 77.6491 74.7665C78.1617 74.7455 78.1701 75.1069 78.1828 75.4599L78.3088 80.2628C78.3088 80.2838 78.3088 80.3048 78.3088 80.3258C78.3424 80.6746 78.3929 81.1662 78.4265 81.7965C78.4643 82.4815 78.4601 82.8512 78.4727 83.2042C78.5113 84.0209 78.6381 84.8309 78.8509 85.6204H78.8551ZM93.5159 15.5055C93.7765 15.2281 93.8185 15.2155 94.079 14.934L94.3437 14.6524C94.6127 14.3793 94.6715 14.3331 94.7639 14.3331C94.8564 14.3331 94.9866 14.4255 95.1001 14.5306C95.2135 14.6356 95.243 14.665 95.2556 14.7281C95.2682 14.7911 95.1505 14.9802 94.89 15.2365L94.4194 15.7113C94.2697 15.8624 94.1294 16.0224 93.9992 16.1904C93.8269 16.4215 93.7765 16.556 93.6294 16.5854C93.573 16.5931 93.5155 16.5892 93.4606 16.5741C93.4057 16.5589 93.3545 16.5327 93.31 16.4971C93.2483 16.4747 93.1922 16.439 93.1457 16.3925C93.0993 16.346 93.0636 16.29 93.0411 16.2282C92.9949 16.161 92.9991 16.0433 93.5159 15.5055ZM91.2132 18.0939C91.541 17.6737 91.583 17.5476 91.9192 17.161C92.4444 16.5602 92.6755 16.4719 92.852 16.5055C92.9806 16.5395 93.0952 16.613 93.1798 16.7156C93.2238 16.7657 93.2567 16.8246 93.2762 16.8883C93.2958 16.9521 93.3016 17.0193 93.2932 17.0854C93.268 17.1779 93.205 17.2115 93.0831 17.3249C92.9613 17.4384 93.0537 17.3627 92.7638 17.6905C92.4738 18.0183 92.4108 18.0561 92.2553 18.2284C92.0939 18.4222 91.9424 18.6242 91.8015 18.8335C91.0577 19.8882 90.8813 20.1445 90.6796 20.0941C90.571 20.0634 90.4753 19.9985 90.4064 19.9092C90.3309 19.806 90.2858 19.6837 90.2762 19.5562C90.2468 19.178 90.6586 18.8082 91.2132 18.0939ZM88.2046 22.1278C88.4706 21.66 88.7638 21.2082 89.0828 20.7748C89.3391 20.426 89.503 20.2243 89.7509 20.2117C89.8868 20.2108 90.0193 20.2535 90.1291 20.3336C90.229 20.3905 90.305 20.4815 90.3434 20.5899C90.4148 20.8378 90.1711 21.0773 89.9232 21.3883C89.5403 21.8782 89.1867 22.3904 88.8643 22.922C88.5954 23.3422 88.4147 23.6574 88.1836 23.6322C88.1029 23.6193 88.0297 23.5774 87.9777 23.5145C87.921 23.43 87.8797 23.3361 87.8558 23.2372C87.7676 22.9346 87.8936 22.6909 88.2046 22.1278ZM85.364 26.8929C86.0868 25.6323 86.0153 25.6323 86.4649 24.9558C87.1247 23.9977 87.4062 23.8339 87.6121 23.8801C87.6777 23.8924 87.7379 23.9247 87.7844 23.9725C87.8351 24.0123 87.8766 24.0624 87.9062 24.1196C88.0701 24.4516 87.7339 24.9054 87.4272 25.355C86.9552 26.0009 86.5337 26.6822 86.1666 27.393C85.9649 27.8132 85.6708 28.5149 85.4228 28.4771C85.3138 28.4459 85.2093 28.4007 85.1119 28.3426C85.043 28.3062 84.9782 28.2625 84.9186 28.2124C84.7211 28.0023 85.1917 27.1787 85.364 26.8929ZM83.1495 31.4857L84.2127 29.1536C84.2695 29.0055 84.3766 28.882 84.5152 28.8048C84.6336 28.7463 84.7667 28.7243 84.8976 28.7418C85.032 28.7418 85.2085 28.7418 85.2884 28.8763C85.3682 29.0107 85.322 29.2587 85.1245 29.4646C84.7761 30.0107 84.4753 30.5856 84.2253 31.1832C83.658 32.5488 83.3554 34.0532 82.9647 34.0364C82.8289 34.0133 82.7015 33.9554 82.5949 33.8683C82.5166 33.7974 82.4513 33.7135 82.4016 33.6204C82.2083 33.2548 82.8008 32.2883 83.1495 31.4689V31.4857ZM80.4056 39.499C80.8258 38.0241 81.288 36.5576 81.7419 35.0995C81.8469 34.7717 81.9856 34.444 82.4352 34.507C82.8848 34.57 83.0445 34.7717 82.8554 35.2045C82.1116 36.6332 81.8133 38.2048 81.4057 39.7427C81.2922 40.1293 81.1956 40.5831 80.6451 40.4528C80.0064 40.31 80.3132 39.8141 80.4056 39.499ZM78.8761 46.9912L79.7711 41.8605C79.7641 41.6519 79.8228 41.4464 79.9389 41.273C80.055 41.0996 80.2227 40.967 80.4182 40.8941C80.4942 40.8756 80.5732 40.8736 80.65 40.8881C80.7268 40.9026 80.7996 40.9333 80.8636 40.9781C81.1578 41.184 80.9015 42.1337 80.9015 42.1337C80.5023 43.6296 80.8678 43.7598 80.0821 46.5626C80.0821 46.5626 79.6619 47.9745 79.3005 47.9661C79.2347 47.9657 79.1699 47.9498 79.1114 47.9198H79.0862C78.9605 47.8041 78.8731 47.6529 78.8355 47.4862C78.798 47.3195 78.8121 47.1454 78.8761 46.987V46.9912ZM77.7373 55.6179C78.0007 53.4021 78.2682 51.189 78.5399 48.9787C78.5862 48.5922 78.7584 48.3106 79.1912 48.3779C79.2932 48.3857 79.3889 48.4306 79.4602 48.5039C79.5249 48.6027 79.5691 48.7135 79.59 48.8298C79.611 48.946 79.6083 49.0653 79.582 49.1804C79.3593 50.5713 79.2501 51.2814 79.2459 51.2814C79.1954 51.5084 79.1324 52.0756 78.9979 53.2102C78.9559 53.5884 78.9013 54.0884 78.792 55.0927C78.7626 55.3952 78.729 55.6936 78.7038 55.9331C78.6437 56.0317 78.556 56.1105 78.4517 56.16C78.3742 56.1939 78.2905 56.2114 78.2059 56.2114C78.1213 56.2114 78.0376 56.1939 77.96 56.16C77.6869 56.0928 77.7373 55.8406 77.7373 55.6179ZM77.2037 64.4422C77.3213 62.0694 77.4474 59.6883 77.5819 57.2987C77.5819 56.9542 77.6491 56.5844 78.1281 56.6222C78.6072 56.66 78.5483 57.0634 78.5483 57.387C78.5483 57.8996 78.5189 58.4081 78.5021 58.9207C78.4601 59.2653 78.4181 59.6267 78.3845 59.9964C78.3508 60.3662 78.3256 60.6562 78.3046 60.9755C78.3046 61.0091 78.3046 61.0385 78.3046 61.0722C78.271 62.1927 78.2332 63.3272 78.1912 64.4758C78.1912 64.8624 78.0147 65.1271 77.5735 65.0725C77.1323 65.0179 77.2037 64.7111 77.2163 64.4296L77.2037 64.4422ZM77.1196 73.5353C77.1196 71.1402 77.1266 68.7436 77.1407 66.3457C77.1407 65.9801 77.0818 65.4675 77.7037 65.5053C78.3256 65.5431 78.1701 66.0431 78.1743 66.4087C78.1743 67.5475 78.1743 68.6904 78.1743 69.8292H78.1575C78.1575 71.0309 78.1575 72.2285 78.1575 73.4261C78.1575 73.8463 78.1575 74.2665 77.5819 74.2665C77.0902 74.2917 77.1196 73.8673 77.1196 73.5353ZM72.9975 103.664C73.7959 102.538 74.9934 101.655 75.0354 100.042C75.0354 99.5795 75.6237 99.0878 76.0229 98.697C76.0893 98.6125 76.1779 98.5481 76.2789 98.511C76.3798 98.4739 76.489 98.4655 76.5944 98.4869C76.7415 98.55 76.8045 98.8147 76.8423 98.9744C76.86 99.0391 76.8726 99.1052 76.8801 99.1719L76.9137 99.4996H76.7457L76.7667 99.7349H76.9474C77.1238 101.113 77.3003 102.487 77.481 103.866L77.2835 103.895L77.3466 104.315H77.5567C77.5924 104.438 77.6205 104.563 77.6407 104.689C77.6914 105.087 77.6658 105.49 77.5651 105.878C77.2877 106.845 75.5481 107.559 75.422 107.559C73.7412 107.807 72.0394 108.089 69.993 107.685C71.1066 106.21 72.0814 104.962 72.9975 103.672V103.664ZM78.5525 114.589C78.624 115.203 78.0063 115.043 77.6617 115.03C74.0942 114.921 70.6233 115.598 67.1567 116.24C64.9212 116.661 64.5556 116.182 64.6649 113.026C67.913 113.866 70.9679 113.223 74.0396 112.547C74.2497 112.501 74.5438 112.375 74.611 112.211C75.5313 109.954 76.8675 111.791 77.8298 112.043C78.9307 112.324 78.4475 113.686 78.5525 114.585V114.589ZM78.9979 98.5668C79.034 98.2157 79.1443 97.8762 79.3215 97.5709C79.6913 96.7893 79.5274 95.9447 79.3509 95.0497C79.2565 94.3388 79.0037 93.6582 78.6114 93.0579C77.7079 91.4822 77.9012 89.1669 77.9727 87.1751C77.9979 86.4398 78.7836 86.7801 79.0148 87.4566C79.0946 88.0869 79.1912 88.608 79.2669 88.9778C79.2669 88.9778 79.7963 91.499 80.8216 92.7176C80.9386 92.8683 81.0808 92.9977 81.2418 93.1C81.4988 93.2409 81.7894 93.3092 82.0822 93.2974C82.0822 93.4823 82.1158 93.663 82.1369 93.8479L80.5989 93.9025L80.767 98.3147L82.12 98.26C81.9641 98.8869 81.6401 99.4593 81.183 99.9156C81.0149 100.084 80.5401 100.542 80.2712 100.411C80.2389 100.393 80.2104 100.369 80.1871 100.34L80.1241 99.5963H80.3048C80.3048 99.5206 80.3048 99.445 80.3048 99.3652L79.1114 99.3988C79.0188 99.1317 78.9802 98.8489 78.9979 98.5668ZM82.2419 96.991L80.9813 97.0793C80.9449 96.1632 80.9099 95.2472 80.8763 94.3311L82.1369 94.2849L82.2419 96.991Z" fill="#231F20"/>
<path d="M81.7754 88.9022C81.7754 88.9526 81.8048 88.9988 81.8216 89.0492L81.7754 88.9022Z" fill="#231F20"/>
<path d="M27.439 135.049V124.01H28.9937V135.049H27.439ZM28.1911 125.485V124.01H34.5278V125.485H28.1911ZM28.1911 130.305V128.834H33.6958V130.305H28.1911ZM28.1911 135.049V133.578H34.5278V135.049H28.1911Z" fill="white"/>
<path d="M36.73 135.049V124.01H38.2805V135.049H36.73ZM37.5032 135.049V133.578H43.8062V135.049H37.5032Z" fill="white"/>
<path d="M49.8193 135.049V124.01H51.3657V135.049H49.8193ZM50.8656 135.049V133.578H53.3869C54.0757 133.62 54.7538 133.393 55.2778 132.944C55.5095 132.709 55.6892 132.429 55.8051 132.12C55.9209 131.812 55.9703 131.482 55.9501 131.153V127.905C55.9708 127.577 55.9216 127.248 55.8057 126.94C55.6898 126.632 55.5099 126.353 55.2778 126.119C54.7547 125.669 54.0759 125.441 53.3869 125.485H50.8656V124.01H53.3196C54.6559 124.01 55.6896 124.359 56.4207 125.048C56.8015 125.433 57.0961 125.894 57.2852 126.401C57.4743 126.908 57.5534 127.449 57.5174 127.989V131.103C57.5403 131.846 57.3694 132.581 57.0216 133.238C56.6961 133.827 56.1953 134.299 55.5887 134.591C54.8758 134.92 54.0962 135.08 53.3112 135.057L50.8656 135.049Z" fill="white"/>
<path d="M63.3705 135.162C62.657 135.179 61.9519 135.005 61.3283 134.658C60.7478 134.324 60.2764 133.829 59.9711 133.233C59.6394 132.57 59.4749 131.836 59.4921 131.095V127.968C59.4741 127.224 59.6385 126.487 59.9711 125.821C60.2779 125.227 60.749 124.734 61.3283 124.401C61.9581 124.07 62.659 123.896 63.3705 123.896C64.0821 123.896 64.7829 124.07 65.4127 124.401C65.9909 124.734 66.4607 125.227 66.7658 125.821C67.1017 126.486 67.2678 127.224 67.249 127.968V131.103C67.2667 131.845 67.1007 132.58 66.7658 133.242C66.4619 133.838 65.9919 134.332 65.4127 134.666C64.788 135.01 64.0832 135.181 63.3705 135.162ZM63.3705 133.637C63.6834 133.653 63.996 133.6 64.2863 133.483C64.5767 133.365 64.8378 133.185 65.0513 132.956C65.4853 132.457 65.7096 131.81 65.6774 131.149V127.914C65.7116 127.252 65.4871 126.602 65.0513 126.103C64.6073 125.666 64.0098 125.422 63.3873 125.422C62.7649 125.422 62.1673 125.666 61.7233 126.103C61.286 126.602 61.06 127.251 61.093 127.914V131.149C61.0624 131.81 61.2882 132.458 61.7233 132.956C61.9348 133.178 62.191 133.352 62.475 133.467C62.759 133.583 63.0643 133.636 63.3705 133.624V133.637Z" fill="white"/>
<path d="M69.6021 135.049V124.002H71.1526V135.049H69.6021ZM70.2786 130.38V128.91H74.0604C74.2647 128.917 74.4681 128.878 74.6556 128.797C74.8432 128.715 75.0102 128.593 75.1445 128.439C75.4104 128.078 75.5538 127.641 75.5538 127.193C75.5538 126.745 75.4104 126.308 75.1445 125.947C75.0108 125.792 74.8439 125.67 74.6562 125.588C74.4685 125.507 74.2649 125.468 74.0604 125.477H70.2786V124.002H73.9806C74.5657 123.989 75.1443 124.127 75.6614 124.401C76.1334 124.658 76.5226 125.044 76.7833 125.514C77.0486 126.035 77.1869 126.611 77.1869 127.195C77.1869 127.779 77.0486 128.355 76.7833 128.876C76.5219 129.344 76.1347 129.73 75.6656 129.99C75.1485 130.264 74.5699 130.401 73.9848 130.389L70.2786 130.38ZM75.8126 135.049L73.2914 130.04L74.8336 129.691L77.6573 135.049H75.8126Z" fill="white"/>
<path d="M78.2964 135.049L82.3597 124.01H83.6792L87.7509 135.049H86.0701L83.0111 126.145L79.952 135.049H78.2964ZM80.1705 132.628V131.153H85.9777V132.628H80.1705Z" fill="white"/>
<path d="M89.4233 135.049V124.01H90.9739V135.049H89.4233ZM90.4696 135.049V133.578H92.9698C93.6599 133.62 94.3393 133.393 94.865 132.944C95.0953 132.708 95.2738 132.428 95.3889 132.119C95.504 131.811 95.5531 131.482 95.5331 131.153V127.905C95.5533 127.577 95.5042 127.249 95.3891 126.941C95.274 126.634 95.0954 126.354 94.865 126.119C94.3402 125.669 93.6601 125.441 92.9698 125.485H90.4696V124.01H92.9236C94.2599 124.01 95.2936 124.359 96.0247 125.048C96.4055 125.433 96.7001 125.894 96.8892 126.401C97.0783 126.908 97.1575 127.449 97.1214 127.989V131.103C97.1437 131.845 96.9744 132.58 96.6298 133.238C96.3016 133.826 95.7997 134.299 95.1927 134.591C94.4798 134.92 93.7002 135.08 92.9152 135.057L90.4696 135.049Z" fill="white"/>
<path d="M102.975 135.162C102.261 135.179 101.556 135.005 100.932 134.658C100.353 134.324 99.8832 133.829 99.5794 133.233C99.2444 132.571 99.0784 131.837 99.0962 131.095V127.968C99.0774 127.224 99.2434 126.486 99.5794 125.821C99.8845 125.227 100.354 124.734 100.932 124.401C101.562 124.07 102.263 123.896 102.975 123.896C103.686 123.896 104.387 124.07 105.017 124.401C105.595 124.734 106.065 125.227 106.37 125.821C106.706 126.486 106.872 127.224 106.853 127.968V131.103C106.871 131.845 106.705 132.58 106.37 133.242C106.066 133.838 105.596 134.332 105.017 134.666C104.392 135.01 103.687 135.181 102.975 135.162ZM102.975 133.637C103.287 133.653 103.6 133.6 103.89 133.483C104.181 133.365 104.442 133.185 104.655 132.956C105.091 132.458 105.316 131.81 105.286 131.149V127.914C105.319 127.251 105.093 126.602 104.655 126.103C104.211 125.666 103.614 125.422 102.991 125.422C102.369 125.422 101.771 125.666 101.327 126.103C100.89 126.602 100.664 127.251 100.697 127.914V131.149C100.667 131.81 100.892 132.458 101.327 132.956C101.539 133.178 101.795 133.352 102.079 133.467C102.363 133.583 102.668 133.636 102.975 133.624V133.637Z" fill="white"/>
<path d="M113.534 135.049V124.01H115.085V135.049H113.534ZM114.333 130.767V129.296H117.862C118.092 129.305 118.32 129.262 118.531 129.171C118.742 129.08 118.929 128.943 119.081 128.771C119.399 128.386 119.563 127.896 119.539 127.397C119.563 126.893 119.4 126.397 119.081 126.006C118.929 125.834 118.741 125.698 118.53 125.608C118.32 125.518 118.091 125.476 117.862 125.485H114.333V124.01H117.808C118.417 123.995 119.02 124.14 119.556 124.43C120.047 124.703 120.449 125.114 120.711 125.611C120.985 126.164 121.127 126.773 121.127 127.391C121.127 128.008 120.985 128.617 120.711 129.17C120.447 129.665 120.046 130.074 119.556 130.347C119.019 130.635 118.417 130.78 117.808 130.767H114.333Z" fill="white"/>
<path d="M123.061 135.049V124.01H124.611V135.049H123.061ZM123.813 125.485V124.01H130.154V125.485H123.813ZM123.813 130.305V128.834H129.317V130.305H123.813ZM123.813 135.049V133.578H130.154V135.049H123.813Z" fill="white"/>
<path d="M135.671 135.162C135.163 135.165 134.656 135.114 134.158 135.011C133.698 134.915 133.252 134.763 132.83 134.557C132.414 134.352 132.024 134.097 131.67 133.797L132.633 132.612C133.039 132.977 133.511 133.262 134.024 133.452C134.552 133.639 135.11 133.732 135.671 133.725C136.322 133.764 136.969 133.609 137.532 133.28C137.743 133.146 137.914 132.959 138.03 132.737C138.146 132.516 138.202 132.269 138.192 132.019C138.204 131.844 138.18 131.668 138.122 131.502C138.064 131.336 137.974 131.183 137.856 131.053C137.61 130.817 137.31 130.647 136.982 130.557C136.591 130.442 136.194 130.352 135.793 130.288C135.372 130.216 134.952 130.132 134.532 130.036C134.123 129.947 133.73 129.796 133.368 129.586C133.012 129.374 132.721 129.067 132.528 128.699C132.289 128.223 132.178 127.693 132.204 127.162C132.179 126.711 132.258 126.262 132.436 125.848C132.614 125.433 132.885 125.066 133.229 124.775C133.91 124.208 134.877 123.934 136.12 123.934C136.712 123.935 137.299 124.031 137.86 124.22C138.448 124.412 139.004 124.693 139.507 125.052L138.625 126.279C138.24 125.987 137.816 125.753 137.364 125.582C136.961 125.432 136.534 125.356 136.104 125.355C135.485 125.317 134.87 125.476 134.347 125.808C134.146 125.95 133.983 126.139 133.873 126.359C133.764 126.579 133.712 126.823 133.721 127.069C133.709 127.244 133.736 127.419 133.798 127.583C133.86 127.747 133.957 127.896 134.082 128.019C134.358 128.251 134.685 128.415 135.036 128.498C135.427 128.603 135.851 128.699 136.297 128.792C136.742 128.884 137.108 128.968 137.511 129.082C137.902 129.193 138.274 129.36 138.616 129.578C138.954 129.799 139.229 130.102 139.415 130.46C139.63 130.918 139.733 131.421 139.713 131.927C139.737 132.376 139.653 132.825 139.468 133.236C139.283 133.647 139.002 134.008 138.65 134.288C137.95 134.871 136.957 135.162 135.671 135.162Z" fill="white"/>
<path d="M145.239 135.162C144.531 135.18 143.831 135.003 143.218 134.65C142.641 134.309 142.174 133.81 141.873 133.212C141.541 132.54 141.377 131.798 141.394 131.048V128.019C141.376 127.268 141.54 126.524 141.873 125.85C142.174 125.251 142.641 124.751 143.218 124.409C143.832 124.058 144.531 123.881 145.239 123.897C145.839 123.889 146.432 124.027 146.968 124.299C147.503 124.57 147.965 124.967 148.315 125.456C148.683 125.968 148.932 126.557 149.042 127.178H147.453C147.366 126.845 147.208 126.534 146.991 126.266C146.774 125.999 146.501 125.781 146.193 125.628C145.9 125.484 145.578 125.41 145.251 125.409C144.942 125.398 144.634 125.456 144.351 125.58C144.067 125.703 143.815 125.889 143.613 126.124C143.182 126.659 142.962 127.333 142.995 128.019V131.048C142.961 131.733 143.181 132.406 143.613 132.939C143.815 133.174 144.067 133.36 144.351 133.483C144.634 133.607 144.942 133.665 145.251 133.654C145.741 133.651 146.217 133.49 146.609 133.196C147.038 132.874 147.336 132.409 147.449 131.885H149.037C148.936 132.51 148.695 133.105 148.331 133.624C147.985 134.105 147.53 134.498 147.004 134.771C146.456 135.044 145.85 135.179 145.239 135.162Z" fill="white"/>
<path d="M149.722 135.049L153.794 124.01H155.113L159.181 135.049H157.5L154.441 126.145L151.382 135.049H149.722ZM151.6 132.628V131.153H157.408V132.628H151.6Z" fill="white"/>
</svg>
