<svg width="88" height="78" viewBox="0 0 88 78" fill="none" xmlns="http://www.w3.org/2000/svg">
<g clip-path="url(#clip0_61_118)">
<path d="M84.6223 58.5399L84.6215 58.5405L65.2813 72.7531C61.9626 75.1855 57.9647 76.5 53.8389 76.5H29.3333H4.88889C3.00912 76.5 1.5 74.989 1.5 73.125V63.375C1.5 61.511 3.00912 60 4.88889 60H10.5111H11.037L11.4478 59.6716L18.3075 54.1872C21.5064 51.6298 25.4834 50.25 29.5931 50.25H41.5556H44H53.7778C55.6575 50.25 57.1667 51.761 57.1667 53.625C57.1667 55.489 55.6575 57 53.7778 57H44H41.5556C39.3867 57 37.6111 58.7644 37.6111 60.9375C37.6111 63.1106 39.3867 64.875 41.5556 64.875H59.9806H60.4724L60.8687 64.5838L79.1555 51.1476C81.2095 49.6403 84.0919 50.0786 85.6014 52.1239C87.1093 54.167 86.6734 57.0347 84.6223 58.5399ZM29.4403 60H29.4405H29.4408H29.4411H29.4414H29.4416H29.4419H29.4422H29.4424H29.4427H29.443H29.4432H29.4435H29.4438H29.444H29.4443H29.4446H29.4448H29.4451H29.4454H29.4457H29.4459H29.4462H29.4465H29.4467H29.447H29.4473H29.4475H29.4478H29.4481H29.4483H29.4486H29.4489H29.4491H29.4494H29.4497H29.4499H29.4502H29.4505H29.4508H29.451H29.4513H29.4516H29.4518H29.4521H29.4524H29.4526H29.4529H29.4532H29.4534H29.4537H29.454H29.4542H29.4545H29.4548H29.455H29.4553H29.4556H29.4559H29.4561H29.4564H29.4567H29.4569H29.4572H29.4575H29.4577H29.458H29.4583H29.4585H29.4588H29.4591H29.4593H29.4596H29.4599H29.4602H29.4604H29.4607H29.461H29.4612H29.4615H29.4618H29.462H29.4623H29.4626H29.4628H29.4631H29.4634H29.4636H29.4639H29.4642H29.4644H29.4647H29.465H29.4653H29.4655H29.4658H29.4661H29.4663H29.4666H29.4669H29.4671H29.4674H29.4677H29.4679H29.4682H29.4685H29.4687H29.469H29.4693H29.4696H29.4698H29.4701H29.4704H29.4706H29.4709H29.4712H29.4714H29.4717H29.472H29.4722H29.4725H29.4728H29.473H29.4733H29.4736H29.4738H29.4741H29.4744H29.4747H29.4749H29.4752H29.4755H29.4757H29.476H29.4763H29.4765H29.4768H29.4771H29.4773H29.4776H29.4779H29.4781H29.4784H29.4787H29.479H29.4792H29.4795H29.4798H29.48H29.4803H29.4806H29.4808H29.4811H29.4814H29.4816H29.4819H29.4822H29.4824H29.4827H29.483H29.4832H29.4835H29.4838H29.4841H29.4843H29.4846H29.4849H29.4851H29.4854H29.4857H29.4859H29.4862H29.4865H29.4867H29.487H29.4873H29.4875H29.4878H29.4881H29.4883H29.4886H29.4889H29.4892H29.4894H29.4897H29.49H29.4902H29.4905H29.4908H29.491H29.4913H29.4916H29.4918H29.4921H29.4924H29.4926H29.4929H29.4932H29.4935H29.4937H29.494H29.4943H29.4945H29.4948H29.4951H29.4953H29.4956H29.4959H29.4961H29.4964H29.4967H29.4969H29.4972H29.4975H29.4977H29.498H29.4983H29.4986H29.4988H29.4991H29.4994H29.4996H29.4999H29.5002H29.5004H29.5007H29.501H29.5012H29.5015H29.5018H29.502H29.5023H29.5026H29.5029H29.5031H29.5034H29.5037H29.5039H29.5042H29.5045H29.5047H29.505H29.5053H29.5055H29.5058H29.5061H29.5063H29.5066H29.5069H29.5071H29.5074H29.5077H29.508H29.5082H29.5085H29.5088H29.509H29.5093H29.5096H29.5098H29.5101H29.5104H29.5106H29.5109H29.5112H29.5114H29.5117H29.512H29.5123H29.5125H29.5128H29.5131H29.5133H29.5136H29.5139H29.5141H29.5144H29.5147H29.5149H29.5152H29.5155H29.5157H29.516H29.5163H29.5165H29.5168H29.5171H29.5174H29.5176H29.5179H29.5182H29.5184H29.5187H29.519H29.5192H29.5195H29.5198H29.52H29.5203H29.5206H29.5208H29.5211H29.5214H29.5217H29.5219H29.5222H29.5225H29.5227H29.523H29.5233H29.5235H29.5238H29.5241H29.5243H29.5246H29.5249H29.5251H29.5254H29.5257H29.5259H29.5262H29.5265H29.5268H29.527H29.5273H29.5276H29.5278H29.5281H29.5284H29.5286H29.5289H29.5292H29.5294H29.5297H29.53H29.5302H29.5305H29.5308H29.5311H29.5313H29.5316H29.5319H29.5321H29.5324H29.5327H29.5329H29.5332H29.5335H29.5337H29.534H29.5343H29.5345H29.5348H29.5351H29.5353H29.5356H29.5359H29.5362H29.5364H29.5367H29.537H29.5372H29.5375H29.5378H29.538H29.5383H29.5386H29.5388H29.5391H29.5394H29.5396H29.5399H29.5402H29.5405H29.5407H29.541H29.5413H29.5415H29.5418H29.5421H29.5423H29.5426H29.5429H29.5431H29.5434H29.5437H29.5439H29.5442H29.5445H29.5447H29.545H29.5453H29.5456H29.5458H29.5461H29.5464H29.5466H29.5469H29.5472H29.5474H29.5477H29.548H29.5482H29.5485H29.5488H29.549H29.5493H29.5496H29.5499H29.5501H29.5504H29.5507H29.5509H29.5512H29.5515H29.5517H29.552H29.5523H29.5525H29.5528H29.5531H29.5533H29.5536H29.5539H29.5541H29.5544H29.5547H29.555H29.5552H29.5555H29.5558H29.556H29.5563H29.5566H29.5568H29.5571H29.5574H29.5576H29.5579H29.5582H29.5584H29.5587H29.559H29.5592H29.5595H29.5598H29.5601H29.5603H29.5606H29.5609H29.5611H29.5614H29.5617H29.5619H29.5622H29.5625H29.5627H29.563H29.5633H29.5635H29.5638H29.5641H29.5644H29.5646H29.5649H29.5652H29.5654H29.5657H29.566H29.5662H29.5665H29.5668H29.567H29.5673H29.5676H29.5678H29.5681H29.5684H29.5686H29.5689H29.5692H29.5695H29.5697H29.57H29.5703H29.5705H29.5708H29.5711H29.5713H29.5716H29.5719H29.5721H29.5724H29.5727H29.5729H29.5732H29.5735H29.5738H29.574H29.5743H29.5746H29.5748H29.5751H29.5754H29.5756H29.5759H29.5762H29.5764H29.5767H29.577H29.5772H29.5775H29.5778V58.5V57H29.5775H29.5772H29.577H29.5767H29.5764H29.5762H29.5759H29.5756H29.5754H29.5751H29.5748H29.5746H29.5743H29.574H29.5738H29.5735H29.5732H29.5729H29.5727H29.5724H29.5721H29.5719H29.5716H29.5713H29.5711H29.5708H29.5705H29.5703H29.57H29.5697H29.5695H29.5692H29.5689H29.5686H29.5684H29.5681H29.5678H29.5676H29.5673H29.567H29.5668H29.5665H29.5662H29.566H29.5657H29.5654H29.5652H29.5649H29.5646H29.5644H29.5641H29.5638H29.5635H29.5633H29.563H29.5627H29.5625H29.5622H29.5619H29.5617H29.5614H29.5611H29.5609H29.5606H29.5603H29.5601H29.5598H29.5595H29.5592H29.559H29.5587H29.5584H29.5582H29.5579H29.5576H29.5574H29.5571H29.5568H29.5566H29.5563H29.556H29.5558H29.5555H29.5552H29.555H29.5547H29.5544H29.5541H29.5539H29.5536H29.5533H29.5531H29.5528H29.5525H29.5523H29.552H29.5517H29.5515H29.5512H29.5509H29.5507H29.5504H29.5501H29.5499H29.5496H29.5493H29.549H29.5488H29.5485H29.5482H29.548H29.5477H29.5474H29.5472H29.5469H29.5466H29.5464H29.5461H29.5458H29.5456H29.5453H29.545H29.5447H29.5445H29.5442H29.5439H29.5437H29.5434H29.5431H29.5429H29.5426H29.5423H29.5421H29.5418H29.5415H29.5413H29.541H29.5407H29.5405H29.5402H29.5399H29.5396H29.5394H29.5391H29.5388H29.5386H29.5383H29.538H29.5378H29.5375H29.5372H29.537H29.5367H29.5364H29.5362H29.5359H29.5356H29.5353H29.5351H29.5348H29.5345H29.5343H29.534H29.5337H29.5335H29.5332H29.5329H29.5327H29.5324H29.5321H29.5319H29.5316H29.5313H29.5311H29.5308H29.5305H29.5302H29.53H29.5297H29.5294H29.5292H29.5289H29.5286H29.5284H29.5281H29.5278H29.5276H29.5273H29.527H29.5268H29.5265H29.5262H29.5259H29.5257H29.5254H29.5251H29.5249H29.5246H29.5243H29.5241H29.5238H29.5235H29.5233H29.523H29.5227H29.5225H29.5222H29.5219H29.5217H29.5214H29.5211H29.5208H29.5206H29.5203H29.52H29.5198H29.5195H29.5192H29.519H29.5187H29.5184H29.5182H29.5179H29.5176H29.5174H29.5171H29.5168H29.5165H29.5163H29.516H29.5157H29.5155H29.5152H29.5149H29.5147H29.5144H29.5141H29.5139H29.5136H29.5133H29.5131H29.5128H29.5125H29.5123H29.512H29.5117H29.5114H29.5112H29.5109H29.5106H29.5104H29.5101H29.5098H29.5096H29.5093H29.509H29.5088H29.5085H29.5082H29.508H29.5077H29.5074H29.5071H29.5069H29.5066H29.5063H29.5061H29.5058H29.5055H29.5053H29.505H29.5047H29.5045H29.5042H29.5039H29.5037H29.5034H29.5031H29.5029H29.5026H29.5023H29.502H29.5018H29.5015H29.5012H29.501H29.5007H29.5004H29.5002H29.4999H29.4996H29.4994H29.4991H29.4988H29.4986H29.4983H29.498H29.4977H29.4975H29.4972H29.4969H29.4967H29.4964H29.4961H29.4959H29.4956H29.4953H29.4951H29.4948H29.4945H29.4943H29.494H29.4937H29.4935H29.4932H29.4929H29.4926H29.4924H29.4921H29.4918H29.4916H29.4913H29.491H29.4908H29.4905H29.4902H29.49H29.4897H29.4894H29.4892H29.4889H29.4886H29.4883H29.4881H29.4878H29.4875H29.4873H29.487H29.4867H29.4865H29.4862H29.4859H29.4857H29.4854H29.4851H29.4849H29.4846H29.4843H29.4841H29.4838H29.4835H29.4832H29.483H29.4827H29.4824H29.4822H29.4819H29.4816H29.4814H29.4811H29.4808H29.4806H29.4803H29.48H29.4798H29.4795H29.4792H29.479H29.4787H29.4784H29.4781H29.4779H29.4776H29.4773H29.4771H29.4768H29.4765H29.4763H29.476H29.4757H29.4755H29.4752H29.4749H29.4747H29.4744H29.4741H29.4738H29.4736H29.4733H29.473H29.4728H29.4725H29.4722H29.472H29.4717H29.4714H29.4712H29.4709H29.4706H29.4704H29.4701H29.4698H29.4696H29.4693H29.469H29.4687H29.4685H29.4682H29.4679H29.4677H29.4674H29.4671H29.4669H29.4666H29.4663H29.4661H29.4658H29.4655H29.4653H29.465H29.4647H29.4644H29.4642H29.4639H29.4636H29.4634H29.4631H29.4628H29.4626H29.4623H29.462H29.4618H29.4615H29.4612H29.461H29.4607H29.4604H29.4602H29.4599H29.4596H29.4593H29.4591H29.4588H29.4585H29.4583H29.458H29.4577H29.4575H29.4572H29.4569H29.4567H29.4564H29.4561H29.4559H29.4556H29.4553H29.455H29.4548H29.4545H29.4542H29.454H29.4537H29.4534H29.4532H29.4529H29.4526H29.4524H29.4521H29.4518H29.4516H29.4513H29.451H29.4508H29.4505H29.4502H29.4499H29.4497H29.4494H29.4491H29.4489H29.4486H29.4483H29.4481H29.4478H29.4475H29.4473H29.447H29.4467H29.4465H29.4462H29.4459H29.4457H29.4454H29.4451H29.4448H29.4446H29.4443H29.444H29.4438H29.4435H29.4432H29.443H29.4427H29.4424H29.4422H29.4419H29.4416H29.4414H29.4411H29.4408H29.4405H29.4403V58.5V60Z" stroke="#7E989D" stroke-width="3"/>
<path d="M30.9151 1.5H40.2902V10.6203H24.4312L28.1625 3.18606C28.6883 2.15525 29.7512 1.5 30.9151 1.5ZM58.4641 3.18929L62.1938 10.6203H46.3348V1.5H55.7099C56.8739 1.5 57.9367 2.15528 58.4625 3.18612C58.4631 3.18717 58.4636 3.18823 58.4641 3.18929ZM23.5 36.3609V16.6504H63.125V36.3609C63.125 38.8683 61.0727 40.9211 58.5357 40.9211H28.0893C25.5523 40.9211 23.5 38.8683 23.5 36.3609Z" stroke="#7E989D" stroke-width="3"/>
</g>
<defs>
<clipPath id="clip0_61_118">
<rect width="88" height="78" fill="white"/>
</clipPath>
</defs>
</svg>
