<svg width="178" height="187" viewBox="0 0 178 187" fill="none" xmlns="http://www.w3.org/2000/svg">
<path d="M77.2393 75.4764C74.9252 77.0256 72.9386 79.0161 71.3927 81.3341C69.8468 83.6521 68.772 86.2524 68.2297 88.9864C67.1343 94.5079 68.2743 100.239 71.3987 104.919C74.5231 109.599 79.376 112.844 84.8899 113.941C90.4038 115.038 96.127 113.896 100.8 110.768C105.474 107.639 108.715 102.779 109.81 97.2577C110.905 91.7362 109.765 86.0051 106.641 81.3251C103.517 76.6452 98.6637 73.3999 93.1498 72.303C87.6359 71.2062 81.9127 72.3477 77.2393 75.4764ZM133.778 48.262C131.712 46.193 129.209 44.5617 126.467 43.4875C119.276 40.6626 103.582 40.782 93.45 40.9013C91.821 40.9013 90.3112 40.9411 89 40.9411C87.6888 40.9411 86.1393 40.9411 84.4705 40.9013C74.3388 40.782 58.7241 40.6228 51.5326 43.4875C48.7911 44.5617 46.3277 46.193 44.2219 48.262C42.1161 50.3309 40.5268 52.8375 39.454 55.5828C36.633 62.7843 36.792 78.54 36.8714 88.6858C36.8714 90.3171 36.9112 91.829 36.9112 93.1022C36.9112 94.3754 36.9112 95.8873 36.8714 97.5186C36.792 107.664 36.633 123.42 39.454 130.622C40.5268 133.367 42.1558 135.834 44.2219 137.942C46.2879 140.051 48.7911 141.643 51.5326 142.717C58.7241 145.542 74.4183 145.422 84.55 145.303C86.179 145.303 87.6888 145.263 89 145.263C90.3112 145.263 91.8607 145.263 93.5295 145.303C103.661 145.422 119.276 145.582 126.467 142.717C129.209 141.643 131.672 140.011 133.778 137.942C135.884 135.873 137.473 133.367 138.546 130.622C141.407 123.46 141.248 107.784 141.129 97.5981C141.129 95.9271 141.089 94.3754 141.089 93.0624C141.089 91.7494 141.089 90.2375 141.129 88.5266C141.248 78.3809 141.407 62.7047 138.546 55.5032C137.473 52.7579 135.844 50.2911 133.778 48.1824V48.262ZM107.118 65.9673C114.305 70.7791 119.288 78.2527 120.972 86.7439C122.656 95.2352 120.902 104.049 116.097 111.245C113.718 114.809 110.661 117.868 107.101 120.248C103.541 122.629 99.5481 124.283 95.3494 125.118C86.8699 126.805 78.0688 125.049 70.8821 120.237C63.6955 115.431 58.7099 107.962 57.0222 99.4745C55.3345 90.987 57.0829 82.1757 61.8828 74.9791C66.6827 67.7825 74.1409 62.79 82.6166 61.0999C91.0924 59.4099 99.8915 61.1607 107.078 65.9673H107.118ZM118.72 65.45C117.488 64.6145 116.495 63.4209 115.899 62.0283C115.303 60.6358 115.183 59.1239 115.462 57.612C115.74 56.1 116.495 54.7871 117.528 53.7128C118.561 52.6385 119.951 51.9224 121.421 51.6439C122.892 51.3654 124.441 51.4847 125.832 52.0815C127.222 52.6783 128.414 53.6332 129.249 54.8666C130.083 56.1 130.52 57.5722 130.52 59.0841C130.52 60.0788 130.321 61.0734 129.964 61.9886C129.606 62.9037 129.01 63.7392 128.335 64.4554C127.659 65.1715 126.785 65.7285 125.871 66.1264C124.958 66.5243 123.964 66.7232 122.971 66.7232C121.461 66.7232 119.991 66.2856 118.759 65.45H118.72ZM178 29.4426C178 15.3977 166.597 3.97876 152.571 3.97876H25.4286C11.4031 3.97876 0 15.3977 0 29.4426V156.762C0 170.807 11.4031 182.226 25.4286 182.226H152.571C166.597 182.226 178 170.807 178 156.762V29.4426ZM141.844 146.019C134.414 153.459 125.395 155.807 115.223 156.324C104.734 156.921 73.2661 156.921 62.7768 156.324C52.6054 155.807 43.5862 153.459 36.1562 146.019C28.7263 138.579 26.3821 129.547 25.9054 119.362C25.3094 108.858 25.3094 77.3464 25.9054 66.8426C26.4219 56.6571 28.7263 47.6254 36.1562 40.1851C43.5862 32.7449 52.6451 30.3975 62.7768 29.92C73.2661 29.3232 104.734 29.3232 115.223 29.92C125.395 30.4373 134.414 32.7449 141.844 40.1851C149.274 47.6254 151.618 56.6571 152.095 66.8426C152.691 77.3066 152.691 108.778 152.095 119.322C151.578 129.507 149.274 138.539 141.844 145.979V146.019Z" fill="#7E989D"/>
</svg>
