<svg width="74" height="70" viewBox="0 0 74 70" fill="none" xmlns="http://www.w3.org/2000/svg">
<path d="M58.8495 17.5866C58.8495 9.60373 49.0044 3.09741 36.8596 3.09741C24.7148 3.09741 14.8698 9.60373 14.8698 17.5866C14.8698 17.7927 14.8672 18.3614 14.8672 18.4345C14.8672 26.9026 23.4717 33.7611 36.857 33.7611C50.3226 33.7611 58.8495 26.9039 58.8495 18.4358C58.8495 18.1397 58.8495 17.9701 58.8495 17.5866Z" fill="#253E8B"/>
<path d="M57.92 17.6549C57.92 25.1814 48.4205 31.2832 36.7031 31.2832C24.9858 31.2832 15.4863 25.1814 15.4863 17.6549C15.4863 10.1284 24.9858 4.02661 36.7031 4.02661C48.4205 4.02661 57.92 10.1284 57.92 17.6549Z" fill="#00AEEF"/>
<path d="M29.8655 13.3061C29.8539 13.327 29.6441 13.548 29.7801 13.7246C30.1142 14.1548 31.1452 14.4019 32.1878 14.1652C32.8082 14.0253 33.6034 13.3859 34.374 12.7687C35.2094 12.0992 36.0383 11.4284 36.8711 11.1616C37.7531 10.8779 38.3178 10.9995 38.6908 11.1132C39.1014 11.2362 39.5832 11.5094 40.3512 12.0913C41.7979 13.1897 47.6171 18.3169 48.6222 19.2035C49.4317 18.8347 53.0309 17.2708 57.9202 16.1829C57.4954 13.5493 55.9101 11.142 53.505 9.17011C50.1518 10.5915 46.0565 11.3329 42.0505 9.35841C42.0298 9.34926 39.8617 8.31362 37.7233 8.36462C34.545 8.43915 33.1682 9.82785 31.7112 11.2976L29.8655 13.3061Z" fill="white"/>
<path d="M48.4807 19.6251C48.4117 19.5654 41.5971 13.63 40.0531 12.4743C39.1592 11.8076 38.6628 11.6377 38.1416 11.5703C37.8693 11.5365 37.494 11.5858 37.2321 11.6572C36.5142 11.8517 35.5748 12.4769 34.7409 13.1345C33.8783 13.8194 33.0639 14.464 32.3082 14.6326C31.344 14.8479 30.1661 14.5937 29.628 14.2318C29.4104 14.0866 29.2566 13.918 29.1824 13.7454C28.9843 13.2876 29.3504 12.9218 29.4104 12.8595L31.2919 10.8348C31.5095 10.6182 31.731 10.4003 31.9551 10.1863C31.3492 10.2654 30.7876 10.4198 30.2417 10.5715C29.5602 10.7622 28.9048 10.9438 28.2416 10.9425C27.9654 10.9425 26.4826 10.6999 26.2011 10.6247C24.4982 10.1603 23.0049 9.71026 20.7742 8.67261C18.1005 10.6532 16.3129 13.1306 15.7969 15.8584C16.1813 15.9595 16.7989 16.1437 17.0595 16.2008C23.1092 17.5407 24.9933 18.9194 25.336 19.2074C25.706 18.7975 26.2402 18.5381 26.8357 18.5381C27.5054 18.5394 28.1087 18.874 28.4748 19.3916C28.8214 19.1192 29.2996 18.8857 29.9172 18.887C30.1974 18.887 30.4879 18.9376 30.7824 19.0375C31.4652 19.271 31.817 19.7223 31.9994 20.1322C32.2287 20.0297 32.5102 19.9532 32.8424 19.9545C33.1669 19.9545 33.5056 20.0284 33.8483 20.175C34.9637 20.6523 35.137 21.7419 35.0353 22.5655C35.1148 22.5551 35.1956 22.5525 35.2764 22.5525C36.5989 22.5525 37.6739 23.6226 37.6739 24.9404C37.6739 25.3477 37.5696 25.7316 37.3872 26.0676C37.7468 26.2686 38.6641 26.7239 39.4694 26.6227C40.113 26.5423 40.358 26.3231 40.4453 26.1999C40.5052 26.1156 40.5678 26.0157 40.5091 25.9457L38.8022 24.0584C38.8022 24.0584 38.5208 23.7938 38.6146 23.6914C38.711 23.5863 38.8843 23.7368 39.0068 23.8392C39.8759 24.5604 40.9365 25.6512 40.9365 25.6512C40.9548 25.6629 41.0238 25.8017 41.4173 25.8717C41.7548 25.9314 42.3528 25.8964 42.7659 25.5578C42.8701 25.4722 42.9744 25.3659 43.063 25.2556C43.0552 25.2608 43.0499 25.2686 43.0434 25.2712C43.4799 24.7147 42.9939 24.1518 42.9939 24.1518L41.0017 21.9248C41.0017 21.9248 40.7163 21.6627 40.814 21.5564C40.9 21.4656 41.0837 21.6031 41.2088 21.7068C41.8395 22.2322 42.7307 23.1219 43.5855 23.956C43.7522 24.0766 44.5028 24.5396 45.4982 23.8898C46.1015 23.4955 46.2227 23.0117 46.2057 22.6459C46.1628 22.1634 45.7849 21.8184 45.7849 21.8184L43.063 19.0946C43.063 19.0946 42.775 18.8494 42.8766 18.7262C42.96 18.6224 43.1464 18.7716 43.2688 18.874C44.1353 19.5952 46.4833 21.738 46.4833 21.738C46.5172 21.7626 47.3276 22.3372 48.3309 21.7017C48.6892 21.4734 48.9172 21.1297 48.9368 20.7302C48.9707 20.0375 48.4807 19.6251 48.4807 19.6251Z" fill="white"/>
<path d="M35.3062 23.2228C34.8848 23.2189 34.4232 23.4684 34.3634 23.432C34.3296 23.4099 34.3894 23.241 34.4284 23.1435C34.4687 23.0461 35.024 21.3789 33.6716 20.7993C32.6365 20.3549 32.0045 20.8539 31.7873 21.08C31.7301 21.1398 31.7041 21.1346 31.6976 21.0592C31.6768 20.759 31.5428 19.9469 30.6494 19.674C29.3725 19.2842 28.5519 20.173 28.3438 20.4953C28.2502 19.7676 27.6351 19.2036 26.8809 19.2036C26.0629 19.2023 25.3984 19.865 25.3984 20.6824C25.3984 21.501 26.0616 22.1637 26.8796 22.1637C27.2775 22.165 27.639 22.0052 27.9043 21.7505C27.9134 21.7583 27.916 21.7713 27.9121 21.7999C27.8497 22.1663 27.7353 23.497 29.1293 24.0388C29.6885 24.2558 30.1644 24.0947 30.5584 23.8179C30.6768 23.7361 30.695 23.7711 30.6781 23.8803C30.6286 24.2221 30.6924 24.9549 31.7197 25.3721C32.5025 25.6904 32.9655 25.3656 33.2685 25.0849C33.3998 24.964 33.4362 24.9835 33.4427 25.1693C33.4804 26.1608 34.3036 26.947 35.3036 26.947C36.3335 26.9483 37.1683 26.1166 37.1683 25.0875C37.1696 24.0583 36.3361 23.2345 35.3062 23.2228Z" fill="white"/>
<path d="M35.2255 26.7734C34.2984 26.7721 33.5443 26.0504 33.5108 25.1292C33.5082 25.0502 33.5004 24.8402 33.3235 24.8402C33.2499 24.8402 33.1867 24.8843 33.1144 24.9504C32.9104 25.1396 32.6508 25.3326 32.2712 25.3326C32.0995 25.3326 31.9136 25.2924 31.7173 25.2108C30.7373 24.813 30.7244 24.138 30.7644 23.8672C30.7747 23.7959 30.7786 23.7195 30.7282 23.6612L30.6688 23.6067H30.6069C30.5578 23.6067 30.5062 23.6275 30.4377 23.6767C30.1537 23.8762 29.8825 23.9721 29.6062 23.9721C29.4551 23.9721 29.2989 23.9423 29.1427 23.8827C27.854 23.3787 27.956 22.1581 28.018 21.7915C28.0271 21.7163 28.009 21.658 27.9625 21.6204L27.8708 21.5453L27.7856 21.6269C27.5351 21.8692 27.2059 22.0027 26.8611 22.0027C26.1225 22.0014 25.5221 21.4001 25.5221 20.659C25.5234 19.9179 26.1251 19.3167 26.8624 19.3179C27.5299 19.3179 28.0981 19.8207 28.182 20.4893L28.2285 20.8508L28.426 20.545C28.448 20.51 28.989 19.6885 29.9832 19.6898C30.173 19.6898 30.368 19.7209 30.5643 19.7805C31.357 20.0241 31.4913 20.7458 31.512 21.0451C31.5262 21.22 31.6501 21.2291 31.6747 21.2291C31.7431 21.2291 31.7935 21.1851 31.8296 21.1475C31.9794 20.992 32.3048 20.7303 32.8148 20.7303C33.0472 20.7316 33.2964 20.7873 33.5521 20.8974C34.8123 21.4403 34.2403 23.0457 34.2338 23.0625C34.1254 23.3295 34.1215 23.4461 34.2235 23.5147L34.2726 23.5381H34.3087C34.3655 23.5381 34.4365 23.5134 34.5528 23.4733C34.7245 23.415 34.9827 23.3256 35.2255 23.3256H35.2268C36.1745 23.3359 36.9453 24.1108 36.9453 25.0514C36.944 26.0012 36.1732 26.7734 35.2255 26.7734ZM48.5712 19.0316C46.4911 17.2111 41.684 13.0169 40.3812 12.0361C39.6375 11.4737 39.13 11.1783 38.6846 11.0449C38.4844 10.984 38.2081 10.9153 37.8517 10.9153C37.5199 10.9153 37.1648 10.9749 36.793 11.0941C35.9511 11.361 35.1131 12.0296 34.3023 12.6762L34.2609 12.7098C33.5056 13.3111 32.7244 13.9343 32.1343 14.0677C31.8761 14.1261 31.6114 14.1559 31.3467 14.1559C30.6843 14.1546 30.0904 13.9628 29.8683 13.6777C29.8309 13.6311 29.8541 13.5546 29.9406 13.4445L29.9522 13.4303L31.7818 11.4504C33.2151 10.0122 34.5682 8.65429 37.6852 8.58303C37.7368 8.58173 37.7898 8.58043 37.8414 8.58043C39.7808 8.58173 41.7189 9.45374 41.9371 9.55351C43.7551 10.445 45.6325 10.8959 47.5202 10.8985C49.4867 10.8985 51.5164 10.41 53.6495 9.42523C53.4106 9.2231 53.1627 9.02745 52.9084 8.83569C51.0335 9.65069 49.2478 10.0627 47.5254 10.0627C45.7655 10.0614 44.0069 9.63643 42.2999 8.8007C42.2108 8.75795 40.07 7.7447 37.8414 7.74341C37.7833 7.74341 37.7239 7.7447 37.6658 7.746C35.0486 7.80819 33.574 8.73981 32.5824 9.5574C31.6179 9.58072 30.7863 9.81395 30.0452 10.0213C29.3854 10.2052 28.8147 10.3659 28.2582 10.3659C28.0296 10.3659 27.6165 10.3439 27.5803 10.3426C26.9399 10.3232 23.7158 9.53019 21.1527 8.55582C20.8906 8.7411 20.6389 8.93287 20.3935 9.12981C23.0715 10.2312 26.3317 11.0837 27.3608 11.1511C27.6462 11.1693 27.9522 11.2016 28.2569 11.2016C28.9374 11.2016 29.6165 11.0112 30.2737 10.8259C30.6624 10.7171 31.0911 10.5978 31.5417 10.511C31.4216 10.6302 31.3015 10.7507 31.1802 10.8712L29.3208 12.89C29.1749 13.0377 28.8573 13.4329 29.0678 13.92C29.1504 14.117 29.3195 14.3049 29.5558 14.4642C29.9987 14.7635 30.7928 14.967 31.5288 14.967C31.809 14.9683 32.0737 14.9398 32.3164 14.884C33.0963 14.7091 33.9136 14.0561 34.7787 13.3642C35.4695 12.8148 36.4495 12.1164 37.1997 11.9104C37.4102 11.8534 37.6671 11.8171 37.875 11.8171C37.937 11.8184 37.9951 11.8197 38.0493 11.8288C38.5451 11.891 39.0254 12.0607 39.8802 12.7047C41.4064 13.8553 48.1606 19.7844 48.2265 19.8427C48.2304 19.8466 48.6616 20.2198 48.6319 20.8391C48.6151 21.1851 48.424 21.4921 48.0922 21.7046C47.8043 21.8886 47.506 21.9806 47.2064 21.9806C46.7545 21.9806 46.4434 21.7681 46.4227 21.7539C46.3982 21.7331 44.0843 19.6043 43.2334 18.8891C43.0979 18.7763 42.9662 18.674 42.8332 18.674C42.7622 18.674 42.6989 18.7051 42.6563 18.7582C42.522 18.9241 42.6718 19.1534 42.8487 19.305L45.5511 22.0312C45.555 22.0337 45.8881 22.3473 45.9256 22.7658C45.9462 23.218 45.7306 23.5951 45.2839 23.8892C44.9649 24.1004 44.6408 24.2079 44.3245 24.2079C43.91 24.2079 43.6182 24.0188 43.5537 23.9721L43.1663 23.5899C42.4587 22.8902 41.7266 22.1672 41.1908 21.7176C41.0604 21.6088 40.9209 21.5077 40.7879 21.5077C40.7221 21.5077 40.6627 21.5336 40.6175 21.5803C40.5568 21.6489 40.5142 21.7707 40.6666 21.9741C40.7285 22.0584 40.8034 22.127 40.8034 22.127L42.7751 24.3505C42.7919 24.3699 43.1818 24.8351 42.819 25.2989L42.7505 25.3883C42.6911 25.4531 42.6266 25.514 42.5672 25.5658C42.2302 25.8418 41.7809 25.8716 41.6027 25.8716C41.5071 25.8716 41.4154 25.8639 41.3354 25.8483C41.1417 25.8146 41.01 25.7602 40.9467 25.685L40.9235 25.6591C40.8163 25.5477 39.8208 24.5293 38.9996 23.84C38.8912 23.7493 38.7556 23.6339 38.6161 23.6339C38.5464 23.6339 38.4844 23.6612 38.438 23.7143C38.274 23.8931 38.5193 24.16 38.6226 24.2585L40.305 26.1204C40.3024 26.136 40.2818 26.1748 40.2405 26.2331C40.1811 26.3174 39.9771 26.5221 39.3663 26.5985C39.2927 26.6089 39.2178 26.6128 39.1429 26.6128C38.5141 26.6128 37.8427 26.3057 37.4967 26.1217C37.6542 25.7887 37.7355 25.4207 37.7355 25.0527C37.7368 23.6625 36.6122 22.5326 35.228 22.5313C35.1983 22.5313 35.1661 22.5326 35.1364 22.5326C35.1829 21.899 35.0925 20.6979 33.8645 20.1692C33.5108 20.015 33.1583 19.9373 32.8148 19.9373C32.5462 19.9373 32.288 19.9839 32.0465 20.0772C31.7909 19.5797 31.3687 19.2182 30.8173 19.0303C30.5126 18.9241 30.2092 18.8709 29.9161 18.8709C29.4048 18.8709 28.9348 19.0212 28.5138 19.3218C28.111 18.8191 27.5028 18.5211 26.8637 18.5211C26.3033 18.5211 25.7636 18.7465 25.3646 19.143C24.8417 18.7427 22.7642 17.4184 17.2043 16.1512C16.9344 16.089 16.3172 15.9128 15.9389 15.8014C15.8756 16.1033 15.8279 16.4078 15.7969 16.7162C15.7969 16.7162 16.8221 16.9624 17.0235 17.009C22.7022 18.2736 24.5796 19.59 24.8972 19.8388C24.7887 20.098 24.7332 20.3778 24.7332 20.659C24.7319 21.8368 25.6861 22.7956 26.8598 22.7969C26.9915 22.7969 27.1219 22.7853 27.2511 22.7619C27.4279 23.6275 27.9922 24.2844 28.856 24.6213C29.1091 24.7185 29.3634 24.769 29.6139 24.769C29.7766 24.769 29.9393 24.7495 30.0994 24.7081C30.2582 25.1136 30.6172 25.6216 31.419 25.9481C31.7005 26.0621 31.982 26.1217 32.2557 26.1217C32.4791 26.1217 32.6973 26.0815 32.9052 26.0051C33.29 26.9445 34.2041 27.5664 35.2242 27.5664C35.9008 27.5677 36.5502 27.2917 37.0228 26.8019C37.4282 27.0287 38.283 27.4368 39.1468 27.4381C39.2592 27.4381 39.3637 27.4304 39.4696 27.4187C40.327 27.3099 40.7259 26.973 40.9093 26.7112C40.9429 26.6646 40.9726 26.6167 40.9984 26.5661C41.2011 26.6244 41.4245 26.6724 41.6788 26.6724C42.1476 26.6724 42.5982 26.5117 43.0514 26.18C43.4981 25.8574 43.8158 25.3935 43.8623 24.9983C43.8635 24.9931 43.8635 24.9867 43.8648 24.9815C44.0146 25.0126 44.1696 25.0281 44.3232 25.0281C44.8061 25.0281 45.2813 24.8778 45.7345 24.5785C46.6086 24.0032 46.761 23.2517 46.7468 22.7593C46.8991 22.7917 47.0567 22.8086 47.2116 22.8086C47.6648 22.8086 48.109 22.6712 48.5325 22.4004C49.0748 22.0532 49.4015 21.5194 49.4518 20.9C49.4854 20.4789 49.3808 20.0539 49.16 19.6885C50.6255 19.0549 53.9749 17.8292 57.9208 16.9364C57.8975 16.6294 57.8523 16.3262 57.7981 16.0243C53.0246 17.0867 49.4622 18.6338 48.5712 19.0316Z" fill="#253E8B"/>
<path d="M68.3954 48.0001C68.01 48.5046 67.4602 48.7581 66.7397 48.7581C66.0218 48.7581 65.4695 48.5046 65.0815 48.0001C64.6934 47.4944 64.5007 46.7761 64.5007 45.844C64.5007 44.9144 64.6934 44.1961 65.0815 43.6929C65.4695 43.191 66.0218 42.94 66.7397 42.94C67.4602 42.94 68.01 43.191 68.3954 43.6929C68.7796 44.1961 68.9724 44.9144 68.9724 45.844C68.9724 46.7761 68.7796 47.4944 68.3954 48.0001ZM70.359 42.36C69.5674 41.3754 68.3631 40.885 66.7475 40.885C65.1345 40.885 63.9302 41.3754 63.1386 42.36C62.3444 43.3408 61.9473 44.5034 61.9473 45.844C61.9473 47.2089 62.3444 48.374 63.1386 49.3446C63.9302 50.3125 65.1345 50.7965 66.7475 50.7965C68.3631 50.7965 69.5674 50.3125 70.359 49.3446C71.1532 48.374 71.549 47.2089 71.549 45.844C71.549 44.5034 71.1532 43.3408 70.359 42.36Z" fill="#253E8B"/>
<path d="M48.6411 46.8405C48.6256 47.6607 48.388 48.226 47.9338 48.5363C47.4782 48.8454 46.981 49.0012 46.4411 49.0012C46.0997 49.0012 45.8103 48.9072 45.5727 48.7218C45.3352 48.5351 45.2171 48.2325 45.2171 47.8127C45.2171 47.3427 45.4105 46.9963 45.7999 46.7709C46.0309 46.6409 46.4099 46.5276 46.9369 46.4374L47.5002 46.3331C47.7806 46.2816 48.0025 46.225 48.1622 46.1645C48.3257 46.1052 48.4841 46.0267 48.6411 45.9288V46.8405ZM49.895 41.4954C49.0889 41.0897 48.1648 40.885 47.1264 40.885C45.5273 40.885 44.4007 41.2984 43.7439 42.1237C43.3324 42.653 43.1001 43.3264 43.0469 44.1467H45.4326C45.4923 43.7848 45.6091 43.4977 45.7856 43.2865C46.0309 42.9994 46.4502 42.8551 47.0407 42.8551C47.5703 42.8551 47.9701 42.9285 48.2427 43.0753C48.5152 43.2221 48.6515 43.4874 48.6515 43.8711C48.6515 44.1866 48.475 44.4184 48.1194 44.569C47.9208 44.654 47.5911 44.7261 47.1303 44.7841L46.284 44.8858C45.3235 45.0068 44.5928 45.209 44.0995 45.4897C43.1949 46.0074 42.7432 46.8405 42.7432 47.9942C42.7432 48.8827 43.0235 49.5703 43.5868 50.0545C44.1463 50.54 44.8589 50.7434 45.7194 50.7833C51.1177 51.0215 51.0554 47.9608 51.106 47.3246V43.8016C51.106 42.6723 50.7023 41.9036 49.895 41.4954Z" fill="#253E8B"/>
<path d="M37.6667 42.9571C38.2913 42.9571 38.7502 43.1455 39.0473 43.5248C39.2498 43.8035 39.3773 44.1196 39.426 44.4705H42.1241C41.9755 43.1352 41.4995 42.2036 40.6961 41.6759C39.8888 41.1495 38.8567 40.885 37.5944 40.885C36.1086 40.885 34.941 41.3327 34.0982 42.2256C33.2541 43.121 32.832 44.3712 32.832 45.9775C32.832 47.4019 33.2133 48.5618 33.9786 49.456C34.7425 50.3501 35.9351 50.7965 37.555 50.7965C39.1762 50.7965 40.4016 50.2611 41.226 49.1889C41.7441 48.5244 42.0333 47.82 42.0951 47.0742H39.4076C39.3524 47.5671 39.1959 47.9683 38.9356 48.278C38.6765 48.5864 38.2387 48.7425 37.6207 48.7425C36.7503 48.7425 36.1573 48.3528 35.843 47.5722C35.6708 47.1555 35.5827 46.6046 35.5827 45.9182C35.5827 45.1995 35.6708 44.6215 35.843 44.1854C36.1704 43.3674 36.7792 42.9571 37.6667 42.9571Z" fill="#253E8B"/>
<path d="M32.187 40.885C26.622 40.885 26.9509 45.8019 26.9509 45.8019V50.7965H29.4765V46.1117C29.4765 45.3445 29.5742 44.7763 29.7658 44.4059C30.1132 43.7508 30.7895 43.4225 31.8 43.4225C31.8752 43.4225 31.9756 43.4265 32.0985 43.4318C32.2226 43.4384 32.3627 43.4489 32.5225 43.4687V40.9035C32.4102 40.8969 32.3376 40.8929 32.3072 40.889C32.2742 40.8863 32.2345 40.885 32.187 40.885Z" fill="#253E8B"/>
<path d="M19.7025 43.4343C20.0596 43.0778 20.5634 42.9003 21.2124 42.9003C21.8108 42.9003 22.3106 43.0675 22.7144 43.4047C23.1169 43.7393 23.3421 44.2322 23.3887 44.8795H19.0281C19.1187 44.2721 19.3453 43.7908 19.7025 43.4343ZM23.1275 48.0143C23.0196 48.1623 22.905 48.2884 22.7784 48.3862C22.4185 48.6719 21.9294 48.7594 21.3537 48.7594C20.81 48.7594 20.3835 48.6796 19.997 48.4454C19.3613 48.0683 19.0041 47.4301 18.9655 46.4919H26.0155C26.0262 45.6863 25.9995 45.0686 25.9316 44.6375C25.8143 43.9053 25.5571 43.2593 25.1612 42.7059C24.7215 42.0754 24.1617 41.6147 23.4887 41.3225C22.813 41.0317 22.0547 40.885 21.2124 40.885C19.7931 40.885 18.6403 41.3174 17.7514 42.1796C16.8625 43.0457 16.416 44.2862 16.416 45.9051C16.416 47.6334 16.9091 48.8804 17.8953 49.646C18.8789 50.413 20.0157 50.7965 21.3044 50.7965C22.8637 50.7965 24.0791 50.3422 24.9453 49.4324C25.4131 48.955 25.705 48.4814 25.8289 48.0143H23.1275Z" fill="#253E8B"/>
<path d="M15.4867 50.7965H13.2075V45.0196C13.2075 44.4915 13.0353 43.2354 11.5323 43.2354C10.5304 43.2354 9.80499 43.9633 9.80499 45.0196V50.7965H7.52317V45.0196C7.52317 44.4915 7.36791 43.2354 5.86627 43.2354C4.84603 43.2354 4.13892 43.9633 4.13892 45.0196V50.7965H1.8584V45.0748C1.8584 42.6889 3.4305 40.885 5.86627 40.885C7.07567 40.885 8.05937 41.3961 8.69865 42.2172C9.37185 41.3961 10.3738 40.885 11.5323 40.885C14.019 40.885 15.4867 42.6153 15.4867 45.0748V50.7965Z" fill="#253E8B"/>
<path d="M58.1059 47.9837C57.7517 48.5053 57.2314 48.7661 56.5511 48.7661C55.8669 48.7661 55.3593 48.504 55.0242 47.9798C54.6891 47.4556 54.5216 46.6914 54.5216 45.8164C54.5216 45.0053 54.6853 44.3259 55.0153 43.7795C55.344 43.2319 55.8619 42.958 56.5676 42.958C57.0296 42.958 57.4357 43.108 57.786 43.4092C58.3546 43.9086 58.6389 44.8019 58.6389 45.9599C58.6389 46.7879 58.4612 47.4634 58.1059 47.9837ZM61.0175 37.7993C61.0175 37.7993 58.5729 37.532 58.5729 39.548L58.5704 42.2199C58.3 41.7727 57.9485 41.4232 57.5144 41.1728C57.0816 40.9212 56.5853 40.7947 56.0256 40.7947C54.8122 40.7947 53.8463 41.2576 53.1203 42.1847C52.3956 43.1119 52.0352 44.4485 52.0352 46.0642C52.0352 47.466 52.402 48.6148 53.1381 49.5094C53.8743 50.4039 55.3174 50.7964 56.598 50.7964C61.067 50.7964 61.0149 46.8596 61.0149 46.8596L61.0175 37.7993Z" fill="#253E8B"/>
<path d="M24.1689 58.9454C24.1689 58.0062 23.9909 57.2853 23.6312 56.78C23.274 56.276 22.7617 56.0215 22.093 56.0215C21.4498 56.0215 20.9477 56.276 20.5892 56.78C20.2561 57.2373 20.0896 57.9608 20.0896 58.9454C20.0896 59.8611 20.2676 60.5444 20.6261 61.0016C20.9833 61.5069 21.4968 61.7602 22.1642 61.7602C22.7846 61.7602 23.274 61.5069 23.6312 61.0016C23.9909 60.4963 24.1689 59.8131 24.1689 58.9454ZM20.0896 65.6752C20.0896 66.0129 19.9701 66.3012 19.7299 66.5415C19.4934 66.7818 19.2061 66.9026 18.8718 66.9026H17.6553V58.2582C17.6553 56.5774 18.2108 55.524 19.1235 54.8121C19.7261 54.3419 20.6248 53.8938 22.3079 53.8938C23.4443 53.8938 24.7765 54.3445 25.4948 55.2395C26.302 56.2475 26.6376 57.3698 26.6376 58.8363C26.6376 60.3534 26.2804 61.577 25.566 62.5174C24.849 63.4332 23.9299 63.8878 22.8087 63.8878C22.2125 63.8878 21.6875 63.78 21.235 63.5644C20.7557 63.3228 20.3756 62.95 20.0896 62.4447V65.6752Z" fill="#00AEEF"/>
<path d="M38.9916 59.009C38.9916 60.6752 39.471 61.5997 40.4299 61.7812C41.3862 61.9601 42.0944 61.7368 42.5492 61.11C42.7648 60.8463 42.9195 60.4271 43.0156 59.8604C43.1105 59.2924 43.1183 58.7309 43.0338 58.1759C42.9506 57.6184 42.7531 57.1235 42.4413 56.6873C42.1308 56.2538 41.6747 56.0344 41.0757 56.0344C40.261 56.0344 39.7114 56.3387 39.423 56.9407C39.1345 57.5465 38.9916 58.2347 38.9916 59.009ZM43.0884 63.1758V62.5608C42.657 63.2385 42.0749 63.6589 41.3447 63.83C40.6144 63.9971 39.8894 63.9371 39.1735 63.6472C38.4524 63.3573 37.8352 62.8206 37.3206 62.0345C36.8061 61.2471 36.5488 60.2156 36.5488 58.9346C36.5488 57.4382 36.8906 56.2225 37.5727 55.2928C38.2549 54.363 39.3515 53.9387 40.86 53.8969C42.3478 53.8577 43.2118 54.1946 44.0577 54.8396C44.9828 55.5461 45.5311 56.6286 45.5311 58.3183V63.4317C45.5337 65.0574 44.4059 68.0725 40.86 67.8165C38.6641 67.6572 37.4454 66.7523 36.7645 64.6996H39.3879C39.5789 65.0378 39.8712 65.2977 40.2688 65.4766C40.6625 65.6594 41.0588 65.7077 41.4525 65.6228C41.8475 65.5379 42.2074 65.3016 42.5323 64.9164C42.8545 64.5299 43.039 63.9488 43.0884 63.1758Z" fill="#00AEEF"/>
<path d="M33.1544 59.8507C33.1388 60.6709 32.9016 61.2352 32.4467 61.545C31.993 61.8548 31.494 62.0103 30.9548 62.0103C30.6139 62.0103 30.3236 61.9165 30.0864 61.7301C29.8479 61.5437 29.7286 61.2403 29.7286 60.8213C29.7286 60.3534 29.9243 60.005 30.3132 59.7813C30.5452 59.6489 30.9224 59.5371 31.4499 59.4471L32.0137 59.343C32.295 59.2903 32.5167 59.2337 32.6761 59.1733C32.8394 59.1154 32.9975 59.037 33.1544 58.938V59.8507ZM34.4091 54.5044C33.6015 54.0995 32.6774 53.8938 31.6392 53.8938C30.041 53.8938 28.9146 54.3077 28.2562 55.133C27.8453 55.6613 27.612 56.3349 27.5588 57.1564H29.9477C30.006 56.7938 30.1226 56.5072 30.2989 56.2951C30.5452 56.0084 30.9639 55.8657 31.5549 55.8657C32.085 55.8657 32.4843 55.9377 32.7564 56.0855C33.0286 56.2308 33.166 56.4969 33.166 56.8813C33.166 57.1975 32.9885 57.4289 32.632 57.578C32.435 57.6641 32.1058 57.7348 31.643 57.794L30.7967 57.8955C29.8362 58.0163 29.1065 58.2182 28.6126 58.4997C27.7079 59.0165 27.2568 59.8507 27.2568 61.0025C27.2568 61.8921 27.5368 62.5785 28.0993 63.0644C28.6593 63.5491 29.3722 63.7535 30.2328 63.792C35.6313 64.0311 35.5691 60.9704 35.6197 60.3341V56.8118C35.6197 55.6819 35.2166 54.9132 34.4091 54.5044Z" fill="#00AEEF"/>
<path d="M53.1161 61.0076C52.7188 61.5137 52.1496 61.7655 51.4084 61.7655C50.6672 61.7655 50.0953 61.5137 49.6954 61.0076C49.2941 60.504 49.0955 59.7845 49.0955 58.8527C49.0955 57.9223 49.2941 57.2053 49.6954 56.703C50.0953 56.2007 50.6672 55.9502 51.4084 55.9502C52.1496 55.9502 52.7188 56.2007 53.1161 56.703C53.5133 57.2053 53.712 57.9223 53.712 58.8527C53.712 59.7845 53.5133 60.504 53.1161 61.0076ZM55.1437 55.3687C54.3252 54.3846 53.0827 53.8938 51.415 53.8938C49.7514 53.8938 48.5076 54.3846 47.6891 55.3687C46.8692 56.3503 46.46 57.512 46.46 58.8527C46.46 60.2177 46.8692 61.3821 47.6891 62.3521C48.5076 63.3184 49.7514 63.8053 51.415 63.8053C53.0827 63.8053 54.3252 63.3184 55.1437 62.3521C55.9622 61.3821 56.3715 60.2177 56.3715 58.8527C56.3715 57.512 55.9622 56.3503 55.1437 55.3687Z" fill="#00AEEF"/>
</svg>
