<svg width="377" height="98" viewBox="0 0 377 98" fill="none" xmlns="http://www.w3.org/2000/svg">
<path d="M139 45.3599C139 20.3716 107.886 0 69.502 0C31.1218 0 0.00782151 20.3716 0.00782151 45.3599C0.00782151 46.0077 0 47.7912 0 48.0176C0 74.5279 27.1954 96 69.4941 96C112.055 96 139 74.5357 139 48.0215C139 47.0965 139 46.5619 139 45.3599Z" fill="#253E8B"/>
<path d="M136 45.5019C136 68.9729 106.227 88 69.5 88C32.7726 88 3 68.9729 3 45.5019C3 22.0271 32.7726 3 69.5 3C106.227 3 136 22.0271 136 45.5019Z" fill="#00AEEF"/>
<path d="M47.4093 32.0459C47.3745 32.1106 46.7176 32.7839 47.1427 33.3202C48.186 34.6325 51.4049 35.3819 54.6586 34.663C56.5946 34.2369 59.0793 32.2932 61.4867 30.4103C64.0912 28.3714 66.6803 26.3326 69.2809 25.5186C72.0322 24.6551 73.7982 25.0279 74.9652 25.374C76.2442 25.7468 77.7474 26.576 80.1471 28.3486C84.6644 31.6922 102.83 47.3031 105.968 50C108.499 48.8741 119.732 44.1155 135 40.8023C133.675 32.7915 128.721 25.4577 121.212 19.4553C110.748 23.784 97.9574 26.0435 85.4527 20.0296C85.387 20.003 78.6169 16.8496 71.9433 17.0056C62.0161 17.23 57.7191 21.4599 53.1709 25.9332L47.4093 32.0459Z" fill="white"/>
<path d="M105.557 52.1437C105.342 51.9544 83.9578 33.451 79.1167 29.8539C76.3114 27.7752 74.7524 27.242 73.1152 27.0373C72.2635 26.9252 71.0835 27.0836 70.263 27.3077C68.0085 27.9143 65.0624 29.8616 62.4446 31.9133C59.7369 34.046 57.1816 36.0552 54.8138 36.5807C51.7857 37.2529 48.0894 36.457 46.4015 35.3327C45.7177 34.8767 45.2372 34.3513 45.0066 33.8181C44.3815 32.3885 45.5302 31.2448 45.7216 31.0555L51.6216 24.7422C52.3092 24.066 52.9969 23.3899 53.7041 22.7215C51.8013 22.9688 50.0391 23.4479 48.3278 23.9192C46.1905 24.5142 44.1353 25.0783 42.0528 25.0783C41.1854 25.0783 36.5318 24.3249 35.6488 24.0854C30.3076 22.6403 25.619 21.2339 18.6211 18C10.2323 24.1781 4.6215 31.8978 3 40.4019C4.20733 40.7187 6.14923 41.2905 6.96584 41.4683C25.9472 45.6411 31.8588 49.9414 32.9333 50.8417C34.0937 49.5628 35.7699 48.7552 37.6415 48.7552C39.7397 48.7591 41.6347 49.7985 42.7834 51.4135C43.8696 50.5635 45.37 49.841 47.308 49.841C48.1871 49.841 49.1014 50.0032 50.0235 50.3123C52.1647 51.0387 53.2704 52.449 53.8448 53.724C54.5637 53.4033 55.4467 53.1676 56.4861 53.1715C57.5098 53.1715 58.5725 53.3994 59.6431 53.8592C63.144 55.3429 63.6871 58.743 63.3706 61.3046C63.6207 61.2776 63.8707 61.266 64.1247 61.266C68.2742 61.2699 71.65 64.6042 71.65 68.7114C71.65 69.9826 71.3218 71.1764 70.7475 72.2235C71.8766 72.8533 74.7563 74.2713 77.2842 73.9545C79.3043 73.7033 80.0701 73.0194 80.3436 72.6369C80.5312 72.3742 80.7304 72.0651 80.5468 71.8449L75.19 65.9604C75.19 65.9604 74.3069 65.1336 74.6 64.8168C74.9008 64.4883 75.4479 64.9597 75.8308 65.2765C78.558 67.5291 81.887 70.9253 81.887 70.9253C81.9417 70.9639 82.1644 71.3928 83.3952 71.613C84.454 71.7985 86.3295 71.6903 87.6267 70.6355C87.9549 70.3689 88.2831 70.0366 88.5566 69.6928C88.5371 69.7082 88.5175 69.7353 88.498 69.743C89.8655 68.0082 88.3456 66.2541 88.3456 66.2541L82.0901 59.3109C82.0901 59.3109 81.1993 58.4918 81.5002 58.1634C81.7737 57.8775 82.348 58.3102 82.7427 58.6309C84.7197 60.2691 87.5173 63.0433 90.2016 65.6397C90.7212 66.0222 93.0812 67.4634 96.1992 65.4349C98.0942 64.2063 98.4732 62.6994 98.4185 61.5596C98.2895 60.0528 97.0978 58.9787 97.0978 58.9787L88.5566 50.4862C88.5566 50.4862 87.654 49.725 87.9744 49.3387C88.2362 49.0141 88.8223 49.4816 89.2052 49.7985C91.9246 52.051 99.2937 58.7314 99.2937 58.7314C99.3992 58.8048 101.943 60.5976 105.088 58.6155C106.213 57.9045 106.932 56.8343 106.995 55.5863C107.1 53.4265 105.557 52.1437 105.557 52.1437Z" fill="white"/>
<path d="M64.1439 62.4598C62.8195 62.4444 61.3702 63.2179 61.1827 63.1063C61.0772 63.037 61.2608 62.5137 61.3858 62.2097C61.5147 61.9096 63.2571 56.7417 59.0066 54.9447C55.7524 53.5709 53.7639 55.1178 53.0802 55.8182C52.9005 56.0029 52.8224 55.9875 52.799 55.7528C52.7365 54.8215 52.3106 52.305 49.5056 51.4584C45.4935 50.2501 42.9112 53.0091 42.2549 54.0058C41.9619 51.7508 40.032 50.0038 37.6607 50C35.0862 50 33 52.051 33 54.5868C32.9961 57.1188 35.0823 59.1736 37.6567 59.1736C38.9069 59.1775 40.0398 58.6849 40.8758 57.8961C40.9032 57.9192 40.9149 57.9615 40.8993 58.05C40.7039 59.1813 40.3445 63.3064 44.7278 64.988C46.4858 65.6575 47.9821 65.1573 49.2205 64.303C49.5877 64.0452 49.6502 64.153 49.5955 64.4954C49.4392 65.5575 49.6385 67.8278 52.8732 69.1169C55.3305 70.102 56.7877 69.0938 57.7409 68.228C58.155 67.8547 58.2683 67.9125 58.2878 68.4897C58.405 71.5604 60.9951 73.9962 64.1361 74C67.3747 74 70 71.4218 70 68.2357C70.0039 65.0457 67.3825 62.4945 64.1439 62.4598Z" fill="white"/>
<path d="M64.3439 73.5214C61.4181 73.5175 59.0377 71.2558 58.9286 68.3783C58.9247 68.1304 58.8975 67.472 58.3404 67.472C58.1066 67.472 57.9079 67.6115 57.6781 67.8167C57.0353 68.4093 56.2171 69.0134 55.0211 69.0134C54.4757 69.0134 53.8874 68.8856 53.268 68.6339C50.1747 67.3907 50.1318 65.28 50.2565 64.4319C50.2916 64.2034 50.3033 63.9671 50.1474 63.7851L49.9565 63.6186H49.7656C49.6098 63.6186 49.4462 63.6805 49.228 63.8355C48.332 64.459 47.4749 64.7611 46.6022 64.7611C46.123 64.7611 45.6322 64.6642 45.1374 64.4745C41.0701 62.9021 41.3935 59.0835 41.5922 57.9372C41.6194 57.7009 41.561 57.5228 41.413 57.4027L41.1247 57.1665L40.8559 57.4221C40.065 58.1811 39.0248 58.5994 37.9379 58.5994C35.6043 58.5955 33.707 56.7133 33.7109 54.3974C33.7109 52.0776 35.6121 50.1993 37.9418 50.1993C40.0494 50.1993 41.8415 51.7755 42.1103 53.8668L42.2545 54.9938L42.8778 54.0411C42.9479 53.9288 44.6543 51.3611 47.7943 51.365C48.3904 51.365 49.0059 51.4579 49.6293 51.6516C52.1304 52.4106 52.5551 54.6646 52.6213 55.6057C52.6641 56.1518 53.0576 56.1789 53.1355 56.1789C53.3498 56.1789 53.5095 56.0433 53.6225 55.9233C54.0939 55.4353 55.1224 54.622 56.7314 54.622C57.4677 54.622 58.2547 54.7963 59.0611 55.141C63.0388 56.8373 61.235 61.8603 61.2155 61.9145C60.8727 62.7472 60.8571 63.1151 61.1804 63.3281L61.3363 63.4017H61.4531C61.6324 63.4017 61.8544 63.3242 62.2206 63.2003C62.7621 63.0144 63.5803 62.7356 64.3439 62.7356H64.3478C67.3398 62.7704 69.7747 65.1909 69.7747 68.1343C69.7708 71.1047 67.3359 73.5214 64.3439 73.5214ZM106.481 49.3085C99.9129 43.6116 84.7347 30.4943 80.6246 27.4232C78.2754 25.6688 76.6742 24.7393 75.2678 24.3249C74.6367 24.1352 73.7601 23.9183 72.6342 23.9183C71.5901 23.9183 70.4681 24.1042 69.2955 24.476C66.6385 25.3125 63.9932 27.4038 61.4298 29.4254L61.2973 29.53C58.9131 31.4161 56.4509 33.3641 54.5848 33.7785C53.7706 33.9605 52.9329 34.0535 52.0992 34.0535C50.0072 34.0535 48.1333 33.4532 47.4281 32.5624C47.3113 32.4114 47.3853 32.1751 47.658 31.8305L47.6969 31.784L53.4745 25.5952C57.9975 21.095 62.2713 16.8504 72.1122 16.6258C72.2719 16.6219 72.4394 16.618 72.603 16.618C78.7273 16.6219 84.8476 19.3484 85.5333 19.6621C91.2758 22.4466 97.2052 23.8602 103.162 23.8641C109.372 23.8679 115.781 22.3382 122.517 19.2554C121.765 18.628 120.982 18.0161 120.175 17.4158C114.257 19.9641 108.62 21.2538 103.181 21.2538C97.6221 21.246 92.0744 19.9215 86.6826 17.3074C86.3982 17.1718 79.6389 14.0039 72.603 14C72.4199 14 72.2329 14.0039 72.0498 14.0077C63.7868 14.1975 59.1312 17.1176 55.999 19.6737C52.9563 19.7473 50.3266 20.4754 47.993 21.126C45.9049 21.6992 44.105 22.1988 42.348 22.1988C41.6233 22.1988 40.3221 22.1329 40.2052 22.1291C38.1872 22.0671 28.0074 19.5885 19.9118 16.5406C19.0859 17.1215 18.2912 17.7218 17.5159 18.3337C25.9738 21.7805 36.2666 24.445 39.5157 24.6541C40.4195 24.7161 41.3818 24.8168 42.3441 24.8168C44.4946 24.8168 46.6373 24.2204 48.7138 23.6433C49.937 23.2986 51.2889 22.9269 52.7148 22.6558C52.333 23.0275 51.9551 23.4032 51.5733 23.7789L45.7062 30.0916C45.2426 30.5563 44.2374 31.7956 44.8997 33.3176C45.1646 33.9334 45.6984 34.5221 46.4464 35.0217C47.8411 35.9589 50.3461 36.5902 52.6758 36.594C53.5563 36.594 54.3939 36.505 55.1614 36.3346C57.6196 35.7846 60.2026 33.7398 62.9375 31.5787C65.1152 29.8592 68.2085 27.6749 70.5811 27.032C71.2434 26.8539 72.0576 26.7416 72.7082 26.7416C72.903 26.7455 73.09 26.7493 73.2614 26.7764C74.8276 26.9701 76.3391 27.5007 79.0429 29.5184C83.862 33.1162 105.184 51.6593 105.394 51.8452C105.406 51.8568 106.766 53.0187 106.672 54.959C106.621 56.0395 106.018 56.9999 104.97 57.6661C104.058 58.2392 103.119 58.5297 102.172 58.5297C100.747 58.5297 99.7648 57.8636 99.6986 57.821C99.6207 57.7551 92.316 51.0978 89.6278 48.8593C89.1993 48.5068 88.7824 48.1893 88.3617 48.1893C88.1396 48.1893 87.9409 48.2822 87.8046 48.4526C87.3838 48.9716 87.8552 49.688 88.4162 50.1605L96.9481 58.6846C96.9598 58.6962 98.0117 59.676 98.1247 60.9851C98.1948 62.3986 97.513 63.5799 96.0988 64.5016C95.0937 65.16 94.073 65.4969 93.0757 65.4969C91.7667 65.4969 90.8433 64.9005 90.6408 64.7611L89.4175 63.5605C87.1813 61.3723 84.871 59.1106 83.1802 57.7087C82.7673 57.3678 82.327 57.0541 81.9063 57.0541C81.6998 57.0541 81.5128 57.1277 81.3687 57.2788C81.1778 57.4918 81.0414 57.8752 81.5245 58.5103C81.7193 58.7698 81.953 58.9867 81.953 58.9867L88.1825 65.9423C88.2331 66.0042 89.4642 67.4604 88.3227 68.9089L88.1007 69.1838C87.9176 69.3891 87.715 69.5789 87.5241 69.7415C86.4605 70.609 85.0424 70.702 84.4814 70.702C84.1815 70.702 83.8893 70.6749 83.6399 70.6284C83.0244 70.5199 82.6114 70.3495 82.4089 70.1133L82.3348 70.0358C81.9959 69.6873 78.8559 66.5 76.2573 64.3467C75.9184 64.0601 75.4899 63.6999 75.0496 63.6999C74.8315 63.6999 74.6367 63.7851 74.4847 63.9516C73.9705 64.5093 74.7419 65.3459 75.0691 65.6557L80.383 71.4765C80.3752 71.5269 80.309 71.6469 80.1804 71.8328C79.9895 72.0923 79.3467 72.7352 77.4183 72.9753C77.1884 73.0063 76.9508 73.0179 76.7131 73.0179C74.7263 73.0179 72.6069 72.0575 71.5161 71.4843C72.0148 70.4386 72.2719 69.2884 72.2719 68.1382C72.2719 63.789 68.7228 60.2531 64.3517 60.2531C64.2582 60.2531 64.1608 60.2531 64.0673 60.257C64.2075 58.2741 63.927 54.5175 60.0467 52.8638C58.9286 52.3835 57.8144 52.1395 56.7353 52.1395C55.886 52.1395 55.0718 52.2828 54.3082 52.5733C53.5017 51.0203 52.1694 49.8894 50.4279 49.3008C49.4657 48.9716 48.5073 48.8012 47.584 48.8012C45.9672 48.8012 44.4829 49.2737 43.1544 50.2109C41.8844 48.6424 39.9637 47.709 37.9418 47.709C36.1731 47.709 34.4706 48.4139 33.2122 49.6571C31.5565 48.4023 24.9998 44.2584 7.44515 40.2965C6.59586 40.1067 4.64794 39.549 3.45192 39.2043C3.25323 40.1454 3.10129 41.102 3 42.0663C3 42.0663 6.23744 42.837 6.87636 42.9803C24.8089 46.9383 30.7306 51.0551 31.7357 51.8336C31.3929 52.643 31.2176 53.5144 31.2176 54.3974C31.2137 58.0766 34.229 61.078 37.934 61.0819C38.3508 61.0819 38.7638 61.0432 39.1651 60.9696C39.7261 63.6805 41.5104 65.737 44.2335 66.7904C45.0322 67.0925 45.8386 67.2513 46.6295 67.2513C47.1398 67.2513 47.658 67.1893 48.1605 67.0615C48.6631 68.3318 49.7968 69.9158 52.3291 70.9382C53.2173 71.2945 54.1056 71.4804 54.9666 71.4804C55.6717 71.4804 56.3613 71.3565 57.0197 71.1164C58.2313 74.0558 61.122 76 64.34 76C66.4749 76.0039 68.5241 75.1402 70.0201 73.6105C71.2979 74.3192 73.9977 75.5972 76.7248 75.6011C77.0794 75.6011 77.4105 75.574 77.7416 75.5353C80.4531 75.1983 81.7115 74.141 82.292 73.3239C82.3972 73.1806 82.4907 73.0295 82.5725 72.8708C83.2114 73.0566 83.9127 73.2038 84.7191 73.2077C86.1995 73.2077 87.6215 72.7042 89.0552 71.6624C90.4654 70.6555 91.4667 69.2032 91.6108 67.9678C91.6147 67.9484 91.6186 67.9329 91.6225 67.9135C92.0939 68.0104 92.5848 68.0607 93.0718 68.0607C94.595 68.0607 96.091 67.5882 97.5247 66.6549C100.287 64.8579 100.766 62.5071 100.723 60.9657C101.202 61.0664 101.697 61.1167 102.188 61.1167C103.618 61.1167 105.024 60.6907 106.36 59.8426C108.075 58.7543 109.103 57.089 109.259 55.1487C109.368 53.832 109.041 52.5036 108.34 51.3611C112.968 49.3782 123.545 45.5441 136 42.7518C135.926 41.7914 135.786 40.8425 135.614 39.8976C120.545 43.2243 109.298 48.0615 106.481 49.3085Z" fill="#253E8B"/>
<path d="M367.143 34.9711C365.942 36.6023 364.223 37.4159 361.975 37.4159C359.731 37.4159 358 36.6023 356.791 34.9711C355.579 33.3399 354.976 31.0175 354.976 28.0118C354.976 25.0062 355.579 22.6917 356.791 21.0684C358 19.449 359.731 18.6354 361.975 18.6354C364.223 18.6354 365.942 19.449 367.143 21.0684C368.344 22.6917 368.951 25.0062 368.951 28.0118C368.951 31.0175 368.344 33.3399 367.143 34.9711ZM373.284 16.7593C370.805 13.5878 367.046 12 361.998 12C356.958 12 353.195 13.5878 350.72 16.7593C348.24 19.9348 347 23.683 347 28.0118C347 32.4157 348.24 36.1797 350.72 39.3118C353.195 42.432 356.958 44 361.998 44C367.046 44 370.805 42.432 373.284 39.3118C375.764 36.1797 377 32.4157 377 28.0118C377 23.683 375.764 19.9348 373.284 16.7593Z" fill="#253E8B"/>
<path d="M306.041 31.226C305.989 33.8755 305.224 35.7028 303.754 36.6998C302.284 37.7009 300.678 38.2053 298.936 38.2053C297.834 38.2053 296.901 37.8995 296.132 37.2997C295.363 36.6959 294.983 35.7187 294.983 34.3641C294.983 32.8507 295.607 31.7305 296.865 31.0035C297.614 30.5825 298.832 30.217 300.538 29.927L302.356 29.5934C303.262 29.4226 303.975 29.2398 304.495 29.0452C305.024 28.8545 305.533 28.6003 306.041 28.2825V31.226ZM310.091 13.9703C307.483 12.6634 304.503 12 301.147 12C295.988 12 292.347 13.3347 290.228 16.0001C288.895 17.7082 288.15 19.8811 287.973 22.5306H295.68C295.872 21.3627 296.248 20.4372 296.817 19.754C297.614 18.8284 298.964 18.3636 300.874 18.3636C302.581 18.3636 303.874 18.594 304.756 19.0747C305.633 19.5434 306.073 20.4014 306.073 21.6408C306.073 22.6617 305.505 23.4085 304.351 23.8931C303.71 24.1712 302.649 24.4016 301.159 24.5883L298.427 24.9219C295.327 25.3072 292.968 25.9587 291.374 26.8684C288.454 28.5367 287 31.226 287 34.952C287 37.82 287.901 40.0406 289.716 41.6056C291.526 43.1707 293.829 43.8262 296.609 43.9573C314.036 44.7279 313.84 34.8487 314 32.7911V21.4184C314 17.7718 312.694 15.2891 310.091 13.9703Z" fill="#253E8B"/>
<path d="M271.086 18.6866C273.039 18.6866 274.471 19.2995 275.396 20.5214C276.031 21.4249 276.427 22.4478 276.58 23.5781H285C284.537 19.2677 283.051 16.2587 280.541 14.5512C278.024 12.8557 274.804 12 270.863 12C266.224 12 262.584 13.4448 259.953 16.3303C257.318 19.2199 256 23.2557 256 28.4458C256 33.0388 257.192 36.7841 259.576 39.6736C261.961 42.5552 265.682 44 270.741 44C275.804 44 279.624 42.2726 282.2 38.81C283.812 36.6647 284.718 34.3881 284.91 31.9841H276.522C276.349 33.5721 275.859 34.8697 275.047 35.8687C274.239 36.8637 272.875 37.3652 270.945 37.3652C268.231 37.3652 266.38 36.1114 265.396 33.5881C264.859 32.2468 264.588 30.4677 264.588 28.2507C264.588 25.9264 264.859 24.0637 265.396 22.6587C266.42 20.0159 268.318 18.6866 271.086 18.6866Z" fill="#253E8B"/>
<path d="M253.98 12C237.006 12 238.011 27.3798 238.011 27.3798V43H245.711V28.349C245.711 25.9498 246.007 24.1691 246.596 23.0149C247.651 20.9663 249.718 19.9381 252.798 19.9381C253.029 19.9381 253.333 19.9499 253.71 19.9696C254.084 19.9854 254.511 20.0208 255 20.0799V12.0591C254.657 12.0355 254.438 12.0276 254.342 12.0158C254.242 12.0079 254.122 12 253.98 12Z" fill="#253E8B"/>
<path d="M215.266 20.2263C216.388 19.0789 217.96 18.5032 219.985 18.5032C221.855 18.5032 223.415 19.0432 224.676 20.131C225.933 21.2109 226.638 22.803 226.781 24.8953H213.161C213.443 22.93 214.148 21.3777 215.266 20.2263ZM225.965 35.0154C225.631 35.4918 225.273 35.9007 224.875 36.2184C223.753 37.1434 222.225 37.4213 220.427 37.4213C218.724 37.4213 217.395 37.1633 216.189 36.405C214.203 35.1901 213.085 33.1295 212.966 30.1002H234.994C235.025 27.4958 234.938 25.5027 234.727 24.1132C234.361 21.7509 233.557 19.6665 232.32 17.8759C230.947 15.8432 229.2 14.3543 227.091 13.4094C224.986 12.4685 222.619 12 219.985 12C215.548 12 211.947 13.3935 209.17 16.1806C206.393 18.9717 205 22.9777 205 28.2025C205 33.7846 206.54 37.8104 209.62 40.2839C212.695 42.7573 216.249 44 220.271 44C225.146 44 228.938 42.531 231.647 39.597C233.108 38.0526 234.023 36.5241 234.409 35.0154H225.965Z" fill="#253E8B"/>
<path d="M202 43H194.808V24.9301C194.808 23.2809 194.266 19.3544 189.521 19.3544C186.358 19.3544 184.072 21.6318 184.072 24.9301V43H176.877V24.9301C176.877 23.2809 176.385 19.3544 171.644 19.3544C168.426 19.3544 166.192 21.6318 166.192 24.9301V43H159V25.1028C159 17.6424 163.957 12 171.644 12C175.46 12 178.564 13.602 180.583 16.1661C182.707 13.602 185.866 12 189.521 12C197.37 12 202 17.4147 202 25.1028V43Z" fill="#253E8B"/>
<path d="M334.925 35.1359C333.821 36.7814 332.199 37.6023 330.074 37.6023C327.945 37.6023 326.361 36.7736 325.317 35.1241C324.273 33.4667 323.752 31.0631 323.752 28.3061C323.752 25.7494 324.262 23.6089 325.29 21.8848C326.315 20.1607 327.926 19.2966 330.127 19.2966C331.567 19.2966 332.834 19.7679 333.927 20.7184C335.7 22.2893 336.589 25.1053 336.589 28.7578C336.589 31.3655 336.033 33.4942 334.925 35.1359ZM344 3.03719C344 3.03719 336.377 2.1928 336.377 8.55126L336.373 16.9677C335.53 15.5617 334.433 14.4581 333.08 13.6687C331.73 12.8753 330.183 12.4747 328.436 12.4747C324.659 12.4747 321.645 13.9357 319.384 16.8577C317.123 19.7797 316 23.9899 316 29.0837C316 33.5021 317.146 37.1231 319.437 39.9469C321.732 42.7629 326.232 44 330.225 44C344.155 44 343.992 31.5894 343.992 31.5894L344 3.03719Z" fill="#253E8B"/>
<path d="M229.032 70.9172C229.032 67.9626 228.454 65.6899 227.295 64.095C226.14 62.508 224.486 61.7047 222.325 61.7047C220.251 61.7047 218.628 62.508 217.469 64.095C216.396 65.537 215.858 67.8176 215.858 70.9172C215.858 73.8091 216.432 75.9604 217.591 77.4025C218.742 78.9973 220.404 79.7928 222.557 79.7928C224.561 79.7928 226.14 78.9973 227.295 77.4025C228.454 75.8115 229.032 73.6563 229.032 70.9172ZM215.858 92.1324C215.858 93.1904 215.473 94.1034 214.695 94.8597C213.929 95.6199 213.006 96 211.925 96H208V68.7542C208 63.4563 209.788 60.1412 212.734 57.8958C214.683 56.4146 217.583 55 223.021 55C226.69 55 230.989 56.4224 233.311 59.2438C235.916 62.4179 237 65.9563 237 70.5763C237 75.357 235.845 79.2128 233.539 82.1792C231.228 85.0633 228.258 86.4975 224.635 86.4975C222.71 86.4975 221.017 86.1565 219.555 85.4786C218.007 84.7184 216.781 83.5429 215.858 81.948V92.1324Z" fill="#00AEEF"/>
<path d="M275.612 70.1435C275.612 75.4069 277.108 78.3227 280.094 78.8988C283.076 79.463 285.282 78.7567 286.702 76.7761C287.376 75.9435 287.857 74.6218 288.16 72.8344C288.454 71.0431 288.477 69.2676 288.214 67.5158C287.958 65.756 287.337 64.1936 286.364 62.8205C285.399 61.4514 283.976 60.7609 282.11 60.7609C279.571 60.7609 277.857 61.7197 276.957 63.6175C276.058 65.5272 275.612 67.7012 275.612 70.1435ZM288.384 83.2981V81.3608C287.043 83.4993 285.224 84.8251 282.948 85.3617C280.672 85.8943 278.411 85.7049 276.178 84.7856C273.933 83.8742 272.009 82.1776 270.404 79.6997C268.799 77.214 268 73.955 268 69.9107C268 65.1879 269.062 61.3528 271.187 58.4173C273.316 55.4817 276.736 54.1402 281.44 54.01C286.073 53.8838 288.768 54.953 291.409 56.985C294.294 59.2143 296 62.6311 296 67.9695V84.107C296.012 89.2402 292.491 98.7569 281.44 97.952C274.592 97.447 270.792 94.5864 268.671 88.1117H276.849C277.446 89.177 278.357 89.9938 279.594 90.5619C280.819 91.1419 282.06 91.2919 283.282 91.0236C284.515 90.7553 285.635 90.0095 286.651 88.7943C287.655 87.5751 288.233 85.7404 288.384 83.2981Z" fill="#00AEEF"/>
<path d="M257.336 73.6275C257.286 76.1946 256.549 77.9611 255.138 78.931C253.722 79.897 252.175 80.3819 250.498 80.3819C249.433 80.3819 248.534 80.0894 247.798 79.5083C247.057 78.9271 246.687 77.9765 246.687 76.6641C246.687 75.1978 247.293 74.1124 248.504 73.412C249.225 73.0002 250.397 72.6461 252.037 72.3651L253.788 72.0419C254.663 71.8764 255.35 71.6993 255.847 71.5107C256.356 71.326 256.846 71.0835 257.336 70.7756V73.6275ZM261.236 56.9089C258.725 55.6427 255.855 55 252.627 55C247.655 55 244.153 56.2931 242.109 58.8756C240.828 60.5267 240.107 62.6319 239.941 65.2028H247.366C247.547 64.0674 247.91 63.1707 248.457 62.5087C249.225 61.612 250.525 61.1656 252.361 61.1656C254.011 61.1656 255.253 61.3888 256.098 61.8506C256.943 62.3086 257.371 63.1399 257.371 64.3407C257.371 65.3259 256.819 66.0533 255.712 66.5229C255.099 66.7923 254.073 67.0155 252.638 67.1964L250.008 67.5158C247.023 67.893 244.751 68.5242 243.216 69.4017C240.404 71.0181 239 73.6275 239 77.2337C239 80.0124 239.872 82.1638 241.619 83.6802C243.362 85.1927 245.58 85.8354 248.257 85.9586C265.031 86.7052 264.846 77.1298 265 75.14V64.1213C265 60.5883 263.746 58.1867 261.236 56.9089Z" fill="#00AEEF"/>
<path d="M319.821 76.9661C318.58 78.6014 316.799 79.4151 314.48 79.4151C312.157 79.4151 310.369 78.6014 309.123 76.9661C307.866 75.3386 307.243 73.0199 307.243 70.0138C307.243 67.0078 307.866 64.693 309.123 63.0695C310.369 61.446 312.157 60.6402 314.48 60.6402C316.799 60.6402 318.58 61.446 319.821 63.0695C321.062 64.693 321.685 67.0078 321.685 70.0138C321.685 73.0199 321.062 75.3386 319.821 76.9661ZM326.168 58.7599C323.605 55.584 319.717 54 314.5 54C309.295 54 305.403 55.584 302.844 58.7599C300.281 61.9319 299 65.6805 299 70.0138C299 74.4182 300.281 78.1787 302.844 81.3112C305.403 84.4318 309.295 86 314.5 86C319.717 86 323.605 84.4318 326.168 81.3112C328.727 78.1787 330 74.4182 330 70.0138C330 65.6805 328.727 61.9319 326.168 58.7599Z" fill="#00AEEF"/>
</svg>
