<svg width="88" height="78" viewBox="0 0 88 78" fill="none" xmlns="http://www.w3.org/2000/svg">
<g clip-path="url(#clip0_61_118)">
<path d="M84.6223 58.5399L84.6215 58.5405L65.2813 72.7531C61.9627 75.1855 57.9647 76.5 53.8389 76.5H29.3333H4.88889C3.00912 76.5 1.5 74.989 1.5 73.125V63.375C1.5 61.511 3.00912 60 4.88889 60H10.5111H11.037L11.4478 59.6716L18.3075 54.1872C21.5064 51.6298 25.4834 50.25 29.5931 50.25H41.5556H44H53.7778C55.6575 50.25 57.1667 51.761 57.1667 53.625C57.1667 55.489 55.6575 57 53.7778 57H44H41.5556C39.3867 57 37.6111 58.7644 37.6111 60.9375C37.6111 63.1106 39.3867 64.875 41.5556 64.875H59.9806H60.4724L60.8687 64.5838L79.1555 51.1476C81.2095 49.6403 84.0919 50.0786 85.6014 52.1239C87.1093 54.167 86.6734 57.0347 84.6223 58.5399Z" stroke="#7E989D" stroke-width="3"/>
<path d="M30.9151 1.5H40.2902V10.6203H24.4312L28.1625 3.18606C28.6883 2.15525 29.7512 1.5 30.9151 1.5ZM58.4641 3.18929L62.1938 10.6203H46.3348V1.5H55.7099C56.8739 1.5 57.9367 2.15528 58.4625 3.18612C58.4631 3.18717 58.4636 3.18823 58.4641 3.18929ZM23.5 36.3609V16.6504H63.125V36.3609C63.125 38.8683 61.0727 40.9211 58.5357 40.9211H28.0893C25.5523 40.9211 23.5 38.8683 23.5 36.3609Z" stroke="#7E989D" stroke-width="3"/>
</g>
<defs>
<clipPath id="clip0_61_118">
<rect width="88" height="78" fill="white"/>
</clipPath>
</defs>
</svg>
