<svg width="40" height="40" viewBox="0 0 40 40" fill="none" xmlns="http://www.w3.org/2000/svg">
<path d="M9.31146 0.593461L9.31125 0.593518L2.43765 2.46813C2.43743 2.46819 2.43721 2.46825 2.437 2.46831C1.29316 2.78417 0.5 3.82237 0.5 5.00176C0.5 24.0537 15.948 39.5018 35 39.5018C36.1791 39.5018 37.2171 38.7089 37.5332 37.5655L9.31146 0.593461ZM9.31146 0.593461C10.5542 0.253937 11.8517 0.864546 12.3828 2.02751V2.03145L12.4213 2.12376L15.5463 9.62376L15.5464 9.62396C15.9924 10.6932 15.6844 11.9263 14.7851 12.6615C14.7851 12.6615 14.7851 12.6615 14.7851 12.6615L10.9336 15.81L10.6308 16.0574L10.798 16.4109C13.449 22.0154 17.9863 26.5527 23.5909 29.2037L23.9439 29.3707L24.1914 29.0687L27.3477 25.2171L27.3494 25.215C28.0757 24.3185 29.3151 24.0088 30.3856 24.4554L30.3858 24.4555L37.8858 27.5805L37.8869 27.5809C39.1064 28.0858 39.7562 29.4168 39.4083 30.6903L39.4082 30.6905L37.5336 37.5641L9.31146 0.593461Z" stroke="black"/>
</svg>
