<svg width="118" height="78" viewBox="0 0 118 78" fill="none" xmlns="http://www.w3.org/2000/svg">
<g clip-path="url(#clip0_54_250)">
<path d="M84.4627 16.9093V18.4093H85.9627H93.214C95.2494 18.4093 97.1975 19.2141 98.6304 20.6521L109.686 31.747C111.119 33.1852 111.923 35.1428 111.923 37.1902V39.8742V44.4672V53.6531V55.1531H113.423C115.121 55.1531 116.5 56.529 116.5 58.2461C116.5 59.9632 115.121 61.3391 113.423 61.3391H108.847H107.347V62.8391C107.347 69.6228 101.863 75.118 95.1162 75.118C88.3694 75.118 82.8859 69.6228 82.8859 62.8391V61.3391H81.3859H63.0789H61.5789V62.8391C61.5789 69.6228 56.0955 75.118 49.3486 75.118C42.6018 75.118 37.1184 69.6228 37.1184 62.8391V61.3391H35.6184H33.33C30.3733 61.3391 27.9648 58.9298 27.9648 55.9496V41.2023V10.0198C27.9648 7.0397 30.3733 4.63037 33.33 4.63037H79.0976C82.0543 4.63037 84.4627 7.0397 84.4627 10.0198V16.9093Z" stroke="#7E989D" stroke-width="3"/>
<line x1="11.9888" y1="57.2191" x2="22.0999" y2="57.2191" stroke="#7E989D" stroke-width="3" stroke-linecap="round"/>
<line x1="7.61865" y1="64.6685" x2="22.1001" y2="64.6685" stroke="#7E989D" stroke-width="3" stroke-linecap="round"/>
<line x1="1.5" y1="-1.5" x2="20.401" y2="-1.5" transform="matrix(0.99988 -0.0154935 0.0154112 0.999881 1.74805 73.618)" stroke="#7E989D" stroke-width="3" stroke-linecap="round"/>
</g>
<defs>
<clipPath id="clip0_54_250">
<rect width="118" height="78" fill="white"/>
</clipPath>
</defs>
</svg>
