<svg width="118" height="78" viewBox="0 0 118 78" fill="none" xmlns="http://www.w3.org/2000/svg">
<g clip-path="url(#clip0_54_250)">
<path d="M85.9627 24.5953H84.4627V26.0953V39.8742V41.3742H85.9627H104.27H105.77V39.8742V37.1902V36.5704L105.332 36.1314L94.2766 25.0365L93.8369 24.5953H93.214H85.9627ZM87.4627 38.3742V27.5953H92.5911L102.77 37.8099V38.3742H87.4627ZM43.9835 62.8391C43.9835 61.408 44.55 60.0366 45.5568 59.0263C46.5634 58.0161 47.9274 57.4496 49.3486 57.4496C50.7698 57.4496 52.1339 58.0161 53.1405 59.0263C54.1472 60.0366 54.7138 61.408 54.7138 62.8391C54.7138 64.2702 54.1472 65.6416 53.1405 66.6519C52.1339 67.662 50.7698 68.2285 49.3486 68.2285C47.9274 68.2285 46.5634 67.662 45.5568 66.6519C44.55 65.6416 43.9835 64.2702 43.9835 62.8391ZM43.4317 56.9087C41.8635 58.4824 40.9835 60.6158 40.9835 62.8391C40.9835 65.0624 41.8635 67.1957 43.4317 68.7695C45.0001 70.3434 47.1283 71.2285 49.3486 71.2285C51.5689 71.2285 53.6972 70.3434 55.2656 68.7695C56.8337 67.1957 57.7138 65.0624 57.7138 62.8391C57.7138 60.6158 56.8337 58.4824 55.2656 56.9087C53.6972 55.3348 51.5689 54.4496 49.3486 54.4496C47.1283 54.4496 45.0001 55.3348 43.4317 56.9087ZM95.1162 57.4496C96.5374 57.4496 97.9015 58.0161 98.9081 59.0263C99.9148 60.0366 100.481 61.408 100.481 62.8391C100.481 64.2702 99.9148 65.6416 98.9081 66.6519C97.9015 67.662 96.5374 68.2285 95.1162 68.2285C93.695 68.2285 92.3309 67.662 91.3244 66.6519C90.3176 65.6416 89.7511 64.2702 89.7511 62.8391C89.7511 61.408 90.3176 60.0366 91.3244 59.0263C92.3309 58.0161 93.695 57.4496 95.1162 57.4496ZM101.033 56.9087C99.4648 55.3348 97.3365 54.4496 95.1162 54.4496C92.8959 54.4496 90.7677 55.3348 89.1993 56.9087C87.6311 58.4824 86.7511 60.6158 86.7511 62.8391C86.7511 65.0624 87.6311 67.1957 89.1993 68.7695C90.7677 70.3434 92.8959 71.2285 95.1162 71.2285C97.3365 71.2285 99.4648 70.3434 101.033 68.7695C102.601 67.1957 103.481 65.0624 103.481 62.8391C103.481 60.6158 102.601 58.4824 101.033 56.9087ZM37.1184 62.8391V61.3391H35.6184H33.33C30.3733 61.3391 27.9648 58.9298 27.9648 55.9496V41.2023V10.0198C27.9648 7.0397 30.3733 4.63037 33.33 4.63037H79.0976C82.0543 4.63037 84.4627 7.0397 84.4627 10.0198V16.9093V18.4093H85.9627H93.214C95.2494 18.4093 97.1975 19.2141 98.6304 20.6521L109.686 31.747C111.119 33.1852 111.923 35.1428 111.923 37.1902V39.8742V44.4672V53.6531V55.1531H113.423C115.121 55.1531 116.5 56.529 116.5 58.2461C116.5 59.9632 115.121 61.3391 113.423 61.3391H108.847H107.347V62.8391C107.347 69.6228 101.863 75.118 95.1162 75.118C88.3694 75.118 82.8859 69.6228 82.8859 62.8391V61.3391H81.3859H63.0789H61.5789V62.8391C61.5789 69.6228 56.0955 75.118 49.3486 75.118C42.6018 75.118 37.1184 69.6228 37.1184 62.8391Z" stroke="#7E989D" stroke-width="3"/>
<line x1="11.9888" y1="57.2191" x2="22.0999" y2="57.2191" stroke="#7E989D" stroke-width="3" stroke-linecap="round"/>
<line x1="7.61865" y1="64.6686" x2="22.1001" y2="64.6686" stroke="#7E989D" stroke-width="3" stroke-linecap="round"/>
<line x1="1.5" y1="-1.5" x2="20.401" y2="-1.5" transform="matrix(0.99988 -0.0154935 0.0154112 0.999881 1.74805 73.6179)" stroke="#7E989D" stroke-width="3" stroke-linecap="round"/>
</g>
<defs>
<clipPath id="clip0_54_250">
<rect width="118" height="78" fill="white"/>
</clipPath>
</defs>
</svg>
