<svg width="31" height="35" viewBox="0 0 31 35" fill="none" xmlns="http://www.w3.org/2000/svg">
<path d="M26.3569 6.63947C23.4576 3.76837 19.5964 2.18927 15.4931 2.18927C7.02344 2.18927 0.131473 8.99786 0.131473 17.3651C0.131473 20.0379 0.837277 22.6492 2.17969 24.9529L0 32.8143L8.14442 30.702C10.3864 31.9119 12.9121 32.5477 15.4862 32.5477H15.4931C23.9558 32.5477 31 25.7391 31 17.3719C31 13.3182 29.2562 9.51056 26.3569 6.63947ZM15.4931 29.991C13.1958 29.991 10.9469 29.3826 8.98862 28.2342L8.525 27.9608L3.69509 29.2117L4.98214 24.5565L4.67768 24.0779C3.39754 22.0682 2.72634 19.7508 2.72634 17.3651C2.72634 10.4129 8.4558 4.75275 15.5 4.75275C18.9114 4.75275 22.1152 6.06525 24.5232 8.45099C26.9312 10.8367 28.4121 14.0018 28.4051 17.3719C28.4051 24.3309 22.5304 29.991 15.4931 29.991ZM22.4958 20.5438C22.1152 20.3524 20.2261 19.4363 19.8732 19.3133C19.5203 19.1834 19.2643 19.1219 19.0083 19.5047C18.7522 19.8875 18.0187 20.7352 17.7904 20.9949C17.569 21.2479 17.3406 21.282 16.96 21.0906C14.7042 19.9764 13.2234 19.1014 11.7357 16.5789C11.3413 15.909 12.1301 15.9568 12.8636 14.5076C12.9882 14.2547 12.9259 14.0359 12.829 13.8445C12.7321 13.6531 11.9641 11.7869 11.6458 11.0281C11.3344 10.2899 11.0161 10.3924 10.7808 10.3787C10.5594 10.3651 10.3033 10.3651 10.0473 10.3651C9.79129 10.3651 9.37611 10.4608 9.02321 10.8367C8.67031 11.2195 7.6808 12.1356 7.6808 14.0018C7.6808 15.868 9.05781 17.6727 9.24464 17.9256C9.43839 18.1785 11.9502 22.0067 15.8045 23.6541C18.2402 24.6932 19.1951 24.782 20.4129 24.6043C21.1533 24.4949 22.6826 23.6883 23.0009 22.7996C23.3192 21.9109 23.3192 21.1522 23.2223 20.9949C23.1324 20.824 22.8763 20.7283 22.4958 20.5438Z" fill="#33691E"/>
</svg>
