<svg width="376" height="198" viewBox="0 0 376 198" fill="none" xmlns="http://www.w3.org/2000/svg">
<path d="M140.8 64.3999L156.1 23.2H61.7002L46.5002 64.3999H140.8Z" fill="#9E9E9E"/>
<path d="M44.5002 69.7999L38.9001 84.8999H133.2L138.8 69.7999H44.5002Z" fill="#9E9E9E"/>
<path d="M188.6 23.2H168.3L139.8 100.2H159.1L164.5 84.7999H191.9L196.9 100.2H216.7L188.6 23.2ZM178.3 43.8999L186.7 69.7999H169.6L178.3 43.8999Z" fill="#757575"/>
<path d="M269.3 48C264.9 43.7 258.9 41.2 252.4 41.2C245.6 41.2 240.4 43.5 236.4 48.2V23.2H219.2V100.3H236.1V95.1C240.9 100.9 248 101.8 252.1 101.8C258.9 101.8 264.5 99.6 269 95.2C274.5 89.7 277.5 81.0999 277.5 70.8999C277.4 61.1999 274.6 53.3 269.3 48ZM259.7 71.8999C259.7 73.4999 259.4 87.7999 248.2 87.7999C244.7 87.7999 241.9 86.7 239.7 84.6C237.1 82 235.7 77.7999 235.7 72.7999C235.7 66.2999 237 61.5999 239.8 58.7999C241.7 56.8999 244.4 55.8999 247.7 55.8999C250.9 55.8999 253.6 56.7999 255.5 58.7999C259 62.1999 259.7 67.7999 259.7 71.8999Z" fill="#757575"/>
<path d="M318 42.6V75.8C318 86.6 309.6 87.5 307.1 87.5C304.2 87.5 302 86.8 300.6 85.3C299 83.8 298.3 81.5 298.3 78.2V42.6H281V80.3C281 87.2 282.9 92.6 286.6 96.3C290.2 99.8 295.5 101.8 301.7 101.8C308.9 101.8 314.7 99.2 318.5 94.4V100.3H335.1V42.7H318V42.6Z" fill="#757575"/>
<path d="M98.6001 129.4H66H65V130.4V143V144H65.9H82.8C79.2001 157.5 68.4001 158.5 65.1001 158.5C58.6001 158.5 53.4001 156.6 49.6001 153C45.5001 148.8 43.4 142.3 43.4 133.7C43.4 124.9 45.7 117.9 50.3 113.4C53.9 109.7 59 107.8 64.9 107.8C71 107.8 75 110.5 77.2 112.8C79.8 115.3 80.9 118 80.9 119.2V120.2H81.9H98.2H99.3L99.2 119.1C98.5 110 90.1 92.7999 63.9 92.7999C52.6 92.7999 43 96.3999 36.2 103.3C28.9 110.5 24.8 121.3 24.8 133.6C24.8 146.1 28.7 156.5 35.8 163.7C42.4 170.3 51.6001 174 61.6001 174C74.7001 174 81.2001 168.2 85.3 163.7L86.6001 171.2L86.8 172H87.6001H98.5H99.5V171V130.5V129.5H98.6001V129.4Z" fill="#757575"/>
<path d="M161.6 168.3C160.6 167.9 158.8 166.8 158.8 160V129.8C158.8 125.6 157.5 122 154.8 119.2C148.8 113.3 138.4 112.7 134.2 112.7C122.3 112.7 108.3 115 106.6 133L106.5 134.1H123.6L123.7 133.2C124.2 129.8 125.6 126.3 132.4 126.3C135.4 126.3 138.6 126.5 140.4 128.3C141.3 129.2 141.6 130.3 141.6 131.8C141.6 132.5 141.6 134.6 137 135.2L122.9 137.2C111.4 138.8 104.7 145.6 104.7 155.9C104.7 160.8 106.2 164.8 109.2 167.7C112.6 171.1 118 173.1 123.8 173.1C133.6 173.1 138.9 169.2 142.3 166.2C142.6 167.9 143.8 171.6 143.8 171.6H162.4V168.2L161.6 168.3ZM128.6 160.9C126.7 160.9 124.9 160.2 123.8 159.2C122.8 158.2 122.4 156.8 122.4 155.2C122.4 150.3 125.7 148.9 132.2 147.8C137.2 147.1 139.9 146.3 141.6 145.5V150.9C141.5 157.2 134.9 160.9 128.6 160.9Z" fill="#757575"/>
<path d="M199.4 112.8C199.2 112.8 199.1 112.8 198.9 112.8C190.5 112.8 186.3 117.3 183.7 121.6V114.3H167.2V171.9H184.4V141.9C184.4 137.8 185.4 134.9 187.2 132.8C189.6 130.7 192.9 129.6 197.4 129.6C197.9 129.6 198.6 129.6 199.4 129.8V112.8Z" fill="#757575"/>
<path d="M237.9 149.6V150.6C237.9 152.9 235.5 159.4 228.5 159.4C225.6 159.4 223.3 158.6 221.6 156.9C217.9 153.1 217.9 145.8 217.9 142.4C217.9 139.9 218.3 133.6 221.9 130C223.7 128.2 226.1 127.3 229 127.3C235.8 126.9 237.7 132.9 238.1 135.5L238.3 136.3H255.6V135.2C254.3 118.8 241 112.9 229 112.9C210.5 112.9 200.3 124.2 200.3 144.7C200.3 149.9 201.3 159.5 208 166.2C212.8 171 219.5 173.4 228.1 173.4C248 173.4 254.7 159.2 255.5 150.7L255.6 149.7H237.9V149.6Z" fill="#757575"/>
<path d="M276.6 114.3H259.3V171.9H276.6V114.3Z" fill="#757575"/>
<path d="M338 168.3C337 167.9 335.2 166.8 335.2 160V129.8C335.2 125.6 333.8 122 331.1 119.2C325.2 113.3 314.7 112.7 310.6 112.7C298.7 112.7 284.8 115 282.9 133L282.8 134.1H300L300.1 133.2C300.5 129.8 302 126.3 308.7 126.3C311.8 126.3 315 126.5 316.8 128.3C317.6 129.2 318 130.3 318 131.8C318 132.5 318 134.6 313.4 135.2L299.3 137.2C287.8 138.8 281.1 145.6 281.1 155.9C281.1 160.8 282.6 164.8 285.6 167.7C289 171.1 294.4 173.1 300.2 173.1C310 173.1 315.4 169.2 318.7 166.2C319 167.9 320.2 171.6 320.2 171.6H338.8V168.2L338 168.3ZM304.7 160.9C302.9 160.9 301.1 160.2 300 159.2C299 158.2 298.6 156.8 298.6 155.2C298.6 150.3 301.9 148.9 308.3 147.8C313.3 147.1 316.1 146.3 317.8 145.5V150.9C317.8 157.2 311.2 160.9 304.7 160.9Z" fill="#757575"/>
<path d="M340.3 163.5C340.3 159.1 344 155.8 348.2 155.8C352.4 155.8 356 159.1 356 163.5C356 168 352.4 171.2 348.2 171.2C343.9 171.3 340.3 168 340.3 163.5ZM348.1 170C351.6 170 354.4 167.2 354.4 163.5C354.4 159.8 351.6 157.1 348.1 157.1C344.6 157.1 341.7 159.9 341.7 163.5C341.8 167.2 344.6 170 348.1 170ZM346.5 168H345.2V159.1H348.6C350.7 159.1 351.7 159.8 351.7 161.6C351.7 163.3 350.7 163.9 349.4 164L351.9 168H350.3L348 164.1H346.4V168H346.5ZM348.1 163C349.2 163 350.3 163 350.3 161.6C350.3 160.5 349.3 160.3 348.4 160.3H346.5V163H348.1Z" fill="#757575"/>
</svg>
