<svg width="519" height="112" viewBox="0 0 519 112" fill="none" xmlns="http://www.w3.org/2000/svg">
<path fill-rule="evenodd" clip-rule="evenodd" d="M335.335 44.2624V63.2706H309.056V44.0761C309.056 38.825 313.068 36.7451 314.629 36.7451H328.456C331.759 36.7451 335.335 39.7299 335.335 44.2624ZM453.095 36.4912H462.646C466.458 36.4507 469.576 39.4868 469.576 43.3008V71.0149C469.574 71.9173 469.395 72.8105 469.049 73.6436C468.704 74.4766 468.198 75.2332 467.56 75.87C466.923 76.5069 466.167 77.0116 465.335 77.3553C464.503 77.699 463.612 77.8749 462.713 77.8732H453.162C451.347 77.8753 449.604 77.1541 448.318 75.8681C447.033 74.5821 446.308 72.8365 446.305 71.0149V43.3981C446.305 41.5827 447.018 39.8405 448.288 38.548C449.559 37.2556 451.286 36.5167 453.095 36.4912ZM291.719 43.1496V87.6379H308.388V74.467H335.125V87.6541H352.268V43.4629C352.064 32.3422 345.731 26.3402 336.98 26.3402H305.338C296.293 26.3375 291.719 34.1898 291.719 43.1496ZM486.625 73.2974V40.624C486.627 38.7486 486.261 36.8912 485.547 35.158C484.833 33.4248 483.786 31.8497 482.465 30.5229C481.143 29.196 479.575 28.1434 477.848 27.4253C476.121 26.7071 474.27 26.3374 472.401 26.3374H443.623C435.745 26.3374 429.355 32.7257 429.355 40.6024V73.3919C429.355 81.2686 435.745 87.6541 443.623 87.6541L443.677 87.6001H472.395C476.168 87.5802 479.78 86.066 482.445 83.3873C485.11 80.7086 486.612 77.0821 486.625 73.2974ZM42.5688 63.3057L43.3254 63.3138H66.1311C69.7929 63.3138 72.0815 66.3419 72.6066 69.3537C73.3039 73.3811 71.1203 77.3194 65.9372 77.3194H31.1175V87.6271H67.0034L74.9868 87.6325C76.0665 87.6298 78.4763 87.0383 79.7929 86.4143C85.4338 83.7293 87.7305 77.8192 87.9109 72.298C87.9594 70.5314 87.9674 69.0376 87.9432 67.2711C87.7924 54.8106 84.2921 49.9565 70.9022 49.9565H51.2253C46.2872 49.8431 45.0675 45.7859 45.1805 42.4095C45.3959 35.8996 50.6868 36.7316 56.1364 36.7316H86.3223V26.378H42.2322C41.0906 26.3699 38.9016 26.7129 37.8784 27.0884C32.068 29.225 29.5558 35.905 29.3081 43.5277C29.0066 52.8711 32.3857 62.933 42.5688 63.3057ZM402.349 46.9771V87.6541H419.667V43.2144C419.667 32.7149 413.677 26.3051 403.017 26.3051H362.271V87.6541H378.94V36.6776H395.157C401.138 36.6776 402.349 42.1745 402.349 46.9771ZM256.84 36.3318C260.507 36.9396 264.723 37.469 264.723 44.8594V87.6541H281.552V45.632C281.363 36.7073 281.799 27.0154 267.58 26.3374H202.354V87.619H219.322V36.4426H233.695V87.6541H250.211V36.3318H256.84ZM170.819 26.3212V87.6541H188.676V26.3212H170.819ZM115.229 26.3645H98.4225V87.7487H115.229V74.0429H140.439V87.6541H157.246V26.2861H140.439V62.3711H115.229V26.3645ZM496.606 38.5657C495.935 38.5658 495.271 38.4335 494.651 38.176C494.031 37.9186 493.468 37.5412 492.993 37.0654C492.519 36.5896 492.142 36.0247 491.885 35.4029C491.628 34.7811 491.496 34.1146 491.496 33.4416C491.496 32.7685 491.628 32.1019 491.884 31.48C492.141 30.8581 492.517 30.293 492.991 29.8169C493.466 29.3408 494.029 28.9631 494.649 28.7054C495.268 28.4476 495.933 28.3149 496.604 28.3147C497.959 28.3144 499.258 28.854 500.217 29.815C501.175 30.7759 501.714 32.0795 501.714 33.4389C501.714 34.7982 501.176 36.102 500.219 37.0635C499.261 38.025 497.961 38.5653 496.606 38.5657ZM495.082 33.0121V31.0996H496.937C497.81 31.0996 497.98 31.6588 497.98 32.0369C497.98 32.7419 497.6 33.0121 496.827 33.0121H495.082ZM496.606 39.349C498.169 39.349 499.667 38.7263 500.772 37.618C501.877 36.5096 502.498 35.0063 502.498 33.4389C502.498 31.8714 501.877 30.3681 500.772 29.2597C499.667 28.1514 498.169 27.5287 496.606 27.5287C495.044 27.5287 493.545 28.1514 492.441 29.2597C491.336 30.3681 490.715 31.8714 490.715 33.4389C490.715 35.0063 491.336 36.5096 492.441 37.618C493.545 38.7263 495.044 39.349 496.606 39.349ZM493.62 37.0152H495.082V34.2168H496.617C497.721 34.2168 497.78 34.595 497.78 35.5701C497.78 36.3048 497.842 36.6749 497.945 37.0125H499.59V36.8234C499.275 36.7046 499.275 36.4453 499.275 35.3999C499.275 34.0655 498.954 33.8467 498.37 33.5874C499.075 33.3497 499.468 32.6717 499.468 31.8857C499.468 31.2671 499.121 29.8625 497.228 29.8625H493.62V37.0152Z" fill="#757575"/>
</svg>
